<svg width="266" height="279" xmlns="http://www.w3.org/2000/svg" xmlns:xlink="http://www.w3.org/1999/xlink" xml:space="preserve" overflow="hidden"><defs><clipPath id="clip0"><rect x="376" y="265" width="266" height="279"/></clipPath><clipPath id="clip1"><rect x="376" y="266" width="266" height="277"/></clipPath><clipPath id="clip2"><rect x="376" y="266" width="266" height="277"/></clipPath></defs><g clip-path="url(#clip0)" transform="translate(-376 -265)"><g clip-path="url(#clip1)"><g clip-path="url(#clip2)"><path d="M263.957 178.152C263.957 248.431 205.357 305.404 133.069 305.404 60.7818 305.404 2.1812 248.431 2.1812 178.152 2.1812 107.873 60.7818 50.9 133.069 50.9 205.357 50.9 263.957 107.873 263.957 178.152Z" fill="#000000" fill-rule="nonzero" fill-opacity="1" transform="matrix(1.00116 0 0 1 376 224.73)"/><path d="M-44.7125 379.009C-44.936 379.007-45.1586 379.032-45.3761 379.084L-49.5936 380.063C-50.0727 380.172-50.5147 380.407-50.8758 380.741L-55.3031 384.842C-55.4282 384.959-55.5424 385.088-55.6442 385.224L-59.0632 389.806C-59.1803 389.963-59.2809 390.13-59.363 390.309L-60.8252 393.476-63.1907 397.724C-63.2301 397.795-63.2664 397.867-63.2994 397.94L-69.0313 410.728C-69.073 410.822-69.1092 410.919-69.1401 411.017L-71.5505 418.495C-71.5519 418.497-71.5532 418.499-71.5544 418.499L-74.0661 426.334-75.8132 431.734-75.8656 431.797C-76.1642 432.156-76.369 432.584-76.4617 433.041L-77.3577 437.461-79.2284 445.492-82.3998 454.889C-82.5482 455.327-82.5868 455.795-82.5123 456.25L-82.4148 456.847-83.2509 459.872C-83.2617 459.909-83.2716 459.945-83.2808 459.98L-83.9632 462.901-86.5498 471.377C-86.5851 471.494-86.6128 471.615-86.6323 471.736L-87.0709 474.358-90.2462 466.65-92.923 458.204C-92.9522 458.114-92.986 458.024-93.0242 457.937L-94.5161 454.484-96.7093 448.862C-96.7165 448.839-96.724 448.818-96.7317 448.797L-97.4141 447.164-103.705 430.15-105.898 423.215C-105.955 423.035-106.03 422.86-106.123 422.695L-107.626 419.993-115.495 398.718C-115.502 398.697-115.51 398.677-115.517 398.656L-119.439 388.768C-119.71 388.08-120.24 387.528-120.916 387.226L-122.827 386.376C-123.426 386.111-124.098 386.061-124.728 386.238L-128.649 387.324C-130.027 387.708-130.899 389.061-130.681 390.474L-136.638 390.474C-137.433 390.472-138.191 390.808-138.726 391.395L-138.576 391.219C-139.205 391.013-139.885 391.034-140.5 391.28L-144.406 392.839-151.011 393.76C-151.466 393.825-151.899 393.998-152.271 394.267L-153.737 395.324-159.015 396.182C-159.043 396.188-159.07 396.192-159.098 396.198L-162.817 396.917C-163.031 396.96-163.24 397.027-163.439 397.117L-165.688 398.129-173.459 400.489C-173.525 400.51-173.59 400.534-173.654 400.559L-176.616 401.697-180.77 402.743C-180.833 402.76-180.895 402.779-180.957 402.8L-185.381 404.248C-185.764 404.372-186.115 404.578-186.412 404.85L-188.121 406.42C-188.329 406.61-188.507 406.831-188.65 407.073L-190.063 409.488C-190.663 410.514-190.555 411.806-189.793 412.72L-182.85 421.042-180.436 423.935C-180.183 424.238-179.869 424.486-179.514 424.659L-175.593 426.59C-174.427 427.163-173.021 426.868-172.185 425.874L-171.581 425.154C-170.734 424.144-170.698 422.684-171.495 421.634L-173.909 418.451-173.902 418.215-174.408 418.518C-173.854 418.188-173.431 417.678-173.208 417.071L-172.402 414.868-168.833 412.296-169.373 412.079C-168.462 412.445-167.425 412.311-166.637 411.726L-165.98 411.238-161.309 408.655-158.892 407.764C-158.785 407.724-158.681 407.68-158.58 407.628L-156.515 406.568-151.934 404.415C-151.698 404.305-151.478 404.163-151.281 403.992L-151.439 404.134-151 404.202-149.396 407.052C-149.447 407.286-149.469 407.526-149.459 407.768L-149.321 411.148-150.119 431.206-152.62 453.421C-152.632 453.525-152.638 453.63-152.638 453.736L-152.638 455.081-153.606 461.241-154.003 463.621-154.891 468.364-156.488 475.433C-156.501 475.49-156.513 475.546-156.522 475.602L-157.298 480.383-158.659 485.034C-158.689 485.141-158.713 485.251-158.73 485.36L-159.6 490.546-163.236 500.813C-163.248 500.848-163.26 500.884-163.27 500.919L-164.552 505.061-165.924 508.708-168.32 514.925-170.618 520.326-175.109 527.24C-175.118 527.253-175.127 527.267-175.135 527.28L-177.295 530.729-179.03 532.117C-179.478 532.474-179.806 532.96-179.971 533.507L-180.185 534.223-184.069 538.466-186.734 540.342C-186.762 540.361-186.79 540.38-186.817 540.401L-189.658 542.561-192.012 543.823-193.924 544.207-196.542 543.422-197.283 542.635-197.55 541.275-197.043 534.887-196.534 534.215C-196.398 534.034-196.285 533.839-196.197 533.631L-194.423 529.518-194.314 530.057C-194.16 530.814-193.703 531.474-193.051 531.885L-191.139 533.088C-190.471 533.507-189.658 533.628-188.897 533.42L-185.377 532.464C-184.689 532.278-184.097 531.841-183.72 531.236L-183.203 530.407-179.278 525.462C-178.626 524.639-178.484 523.524-178.91 522.564L-179.574 521.061-179.574 520.326C-179.575 519.746-179.754 519.18-180.088 518.706L-182.198 515.696C-182.376 515.441-182.596 515.217-182.847 515.032L-187.169 511.892C-188.401 510.998-190.119 511.241-191.053 512.443L-190.442 512.443C-190.922 512.443-191.394 512.566-191.814 512.798L-194.629 514.366C-194.891 514.512-195.129 514.698-195.335 514.921L-197.268 517.023-199.477 518.681C-199.83 518.946-200.116 519.292-200.312 519.689L-201.606 522.309-202.037 522.618C-202.391 522.869-202.68 523.198-202.884 523.579L-205.4 528.286C-205.554 528.576-205.657 528.891-205.704 529.215L-205.943 530.887-205.669 530.67C-206.258 531.136-206.634 531.818-206.719 532.562L-207.423 538.839C-207.49 539.422-207.371 540.012-207.087 540.526L-206.84 540.971-206.84 543.374C-206.84 543.845-206.723 544.307-206.498 544.72L-203.682 549.908C-203.494 550.255-203.235 550.561-202.922 550.801L-199.001 553.814C-198.46 554.231-197.784 554.436-197.105 554.392L-195.705 554.305-192.488 555.056C-191.919 555.188-191.321 555.142-190.779 554.922L-187.398 553.534C-186.62 553.639-185.833 553.415-185.227 552.916L-182.869 550.969-182.172 551.014C-181.085 551.085-180.055 550.522-179.525 549.57L-178.667 548.027-177.385 546.561C-176.543 546.566-175.743 546.194-175.203 545.549L-171.282 540.845C-171.071 540.593-170.906 540.307-170.794 540L-170.292 538.61-170.824 538.749C-170.356 538.626-169.928 538.386-169.58 538.052L-168.072 536.601C-167.805 536.344-167.591 536.036-167.443 535.697L-166.637 533.844-166.824 533.942C-166.297 533.67-165.87 533.238-165.602 532.708L-164.08 529.71-162.865 528.443C-162.621 528.188-162.426 527.889-162.292 527.562L-159.026 519.618-157.595 516.982C-157.227 516.307-157.151 515.51-157.385 514.779L-157.366 514.831-156.833 513.627-157.962 513.627C-156.769 513.627-155.705 512.877-155.304 511.752L-153.197 505.84C-153.061 505.458-153.008 505.053-153.043 504.648L-153.055 504.525-151.87 502.677C-151.636 502.312-151.49 501.898-151.443 501.466L-151.229 499.535-151.173 499.472C-150.908 499.155-150.716 498.784-150.61 498.385L-149.122 492.798-148.579 491.986C-148.232 491.468-148.068 490.85-148.11 490.228L-148.174 489.264-146.397 482.85C-146.378 482.78-146.362 482.713-146.348 482.642L-145.954 480.652-144.376 474.272-143.791 472.281C-143.774 472.222-143.759 472.162-143.746 472.101L-142.742 467.632C-142.714 467.513-142.694 467.394-142.682 467.273L-142.232 462.354-141.347 460.513C-141.12 460.041-141.029 459.513-141.085 458.991L-142.299 459.82C-141.791 459.473-141.411 458.968-141.216 458.385-141.253 458.273-141.297 458.166-141.347 458.062L-141.201 458.335C-141.136 458.133-141.095 457.924-141.077 457.713L-140.785 454.091-139.701 447.703C-139.688 447.624-139.678 447.546-139.671 447.467L-138.974 439.223-138.55 436.285-138.269 435.741C-138.08 435.379-137.973 434.979-137.954 434.571L-137.842 432.152-137.575 432.643-137.441 433.799C-137.401 434.129-137.303 434.45-137.152 434.747L-135.877 437.26-134.141 443.73C-133.864 444.764-133.025 445.553-131.975 445.765L-133.002 445.596-132.244 448.624C-132.12 449.131-131.858 449.59-131.487 449.957L-130.805 450.626-130.063 452.486-127.589 460.922C-127.547 461.066-127.495 461.206-127.431 461.341L-126.303 463.707-124.248 470.047C-124.243 470.06-124.238 470.074-124.233 470.087L-123.326 472.742C-123.326 472.744-123.326 472.744-123.326 472.746L-118.7 486.256C-118.694 486.274-118.688 486.291-118.681 486.308L-116.237 493.001-115.273 497.51C-115.244 497.646-115.206 497.779-115.157 497.907L-112.098 506.128-112.079 505.998C-112.175 506.573-112.09 507.163-111.836 507.689L-111.146 509.109-111.153 509.136C-111.257 509.635-111.223 510.153-111.056 510.635L-105.68 526.155-105.016 529.244C-104.864 529.948-104.449 530.568-103.854 530.977L-104.154 530.766-103.637 534.144C-103.567 534.605-103.384 535.038-103.105 535.411L-102.805 535.812-102.741 535.374C-102.799 535.781-102.767 536.198-102.647 536.593L-101.541 540.213C-101.216 541.278-100.295 542.052-99.1909 542.19L-91.4456 543.154C-90.3821 543.286-89.3351 542.804-88.7427 541.912L-89.2226 542.676-87.8393 543.067C-86.8479 543.346-85.7832 543.063-85.0613 542.328-83.5812 541.885-82.7325 540.334-83.157 538.848L-84.2816 534.917-84.3603 533.773-84.964 524.015C-84.9753 523.827-85.0054 523.641-85.0538 523.46L-85.11 523.543C-85.0922 523.514-85.0745 523.485-85.0576 523.457-85.074 523.391-85.0928 523.326-85.1139 523.261L-85.0463 523.441C-84.7916 523.007-84.6571 522.516-84.6565 522.013L-84.6565 518.654-84.4166 518.132C-84.2607 517.796-84.1728 517.432-84.1578 517.061L-83.9068 510.681-82.0547 515.752-82.0547 516.468C-82.0553 517.347-81.6465 518.176-80.949 518.71L-78.4372 520.633C-77.2767 521.52-75.631 521.376-74.6433 520.299L-73.5373 519.096C-72.8657 518.366-72.6266 517.338-72.9076 516.385L-80.1954 491.819-79.7568 487.283-80.0829 487.542C-79.5651 487.126-79.2107 486.541-79.0819 485.89L-77.5861 478.35-77.1063 476.404-74.4034 466.669C-74.3157 466.356-74.2826 466.03-74.3059 465.705L-74.4408 465.89C-74.3932 465.824-74.3481 465.759-74.3059 465.69-74.3312 465.389-74.4047 465.095-74.5233 464.817L-74.2197 465.533C-74.122 465.346-74.0452 465.151-73.9911 464.947L-68.9676 445.893-68.0641 442.534-65.8823 434.691-62.602 425.618C-62.4905 425.311-62.4335 424.987-62.4333 424.659L-62.4333 423.912-62.0923 422.511-60.8364 420.025C-60.7836 419.922-60.7371 419.816-60.6976 419.707L-58.182 412.708C-58.0711 412.401-58.0141 412.077-58.0135 411.753L-58.0135 412.088-57.6722 411.635C-57.4634 411.355-57.3083 411.038-57.2148 410.703L-55.9403 406.117-55.5428 405.071-51.4529 397.322-51.3742 397.274C-51.3487 397.334-51.3213 397.395-51.2917 397.453L-50.0846 399.868C-49.8324 400.37-49.4356 400.787-48.9448 401.063L-47.4379 401.912C-46.7465 402.299-45.9233 402.38-45.1697 402.132L-41.1472 400.8C-40.6036 400.622-40.1278 400.28-39.7827 399.823L-37.7733 397.169C-37.6019 396.942-37.4654 396.693-37.3685 396.426L-35.0554 390.034C-34.7915 389.303-34.8404 388.497-35.1903 387.804L-37.1998 383.823C-37.3128 383.599-37.4552 383.391-37.6234 383.203L-40.2401 380.303C-40.6787 379.817-41.2724 379.499-41.9196 379.403L-44.3225 379.042C-44.4517 379.023-44.5818 379.011-44.7125 379.009ZM-127.772 394.526-126.348 397.244-113.534 430.388C-113.533 430.39-113.532 430.392-113.53 430.396L-109.32 441.221-105.106 452.887-100.586 465.548C-100.577 465.571-100.568 465.596-100.559 465.619L-94.0587 482.418-93.099 485.537-91.4908 491.422-91.8205 492.765C-91.8351 492.825-91.8476 492.886-91.8581 492.948L-92.6602 497.533C-92.6643 497.552-92.6681 497.571-92.6716 497.589L-93.5938 503.539-94.2612 500.337C-94.2898 500.199-94.3286 500.065-94.3773 499.932L-95.5584 496.746-97.7477 489.702C-97.9354 489.095-98.3223 488.569-98.8459 488.21L-98.6024 488.379-99.5845 483.358C-99.6298 483.132-99.703 482.911-99.802 482.702L-100.661 480.869-103.041 474.692C-103.12 474.485-103.223 474.289-103.349 474.107L-104.758 472.049-104.758 468.222C-104.758 467.918-104.808 467.617-104.904 467.329L-106.715 461.901C-106.741 461.82-106.771 461.742-106.805 461.665L-108.721 457.273-108.597 456.081C-108.55 455.628-108.615 455.172-108.784 454.747L-110.996 449.214-111.648 445.743C-111.751 445.198-112.012 444.697-112.398 444.3L-113.23 443.44-113.965 439.903C-113.986 439.803-114.012 439.703-114.044 439.605L-117.369 429.35C-117.403 429.242-117.443 429.139-117.489 429.037L-119.918 423.766-120.061 422.632C-120.096 422.35-120.173 422.075-120.289 421.818L-126.224 408.67C-126.383 408.317-126.612 408-126.899 407.741L-126.914 407.729-129.594 402.409C-129.82 401.962-130.16 401.583-130.58 401.311L-131.877 400.472-133.939 399.107-134.1 398.582C-133.829 398.52-133.569 398.416-133.328 398.278L-128.908 395.745C-128.415 395.461-128.019 395.036-127.772 394.526ZM-51.5767 395.898C-51.5854 395.992-51.589 396.088-51.5881 396.182L-51.603 396.163ZM-178.423 546.357C-178.11 546.484-177.778 546.553-177.441 546.561L-177.576 546.699Z" fill="#F2DFD7" fill-rule="nonzero" fill-opacity="1" transform="matrix(1.04968 0 0 1 631.208 -63.7508)"/><path d="M210.856 92.5611 206.435 93.5405 201.792 97.6427 198.208 102.222 196.628 105.484 194.097 109.824 188.086 122.615 185.56 130.092 182.923 137.933 180.918 143.849 180.498 144.331 179.551 148.791 177.546 156.995 174.174 166.524 174.382 167.736 173.328 171.354 172.589 174.365 169.85 182.933 169.005 187.757 167.212 193.309 165.632 191.621 164.894 188.843 160.362 178.348 157.517 169.787 155.931 166.286 153.612 160.615 152.873 158.929 146.236 141.797 143.912 134.796 142.226 131.905 133.897 110.427 129.786 100.535 127.781 99.6869 123.669 100.773 125.674 102.586 127.993 106.807 141.487 140.103 145.916 150.962 150.347 162.666 155.091 175.331 161.941 192.223 162.995 195.479 164.893 202.116 164.366 204.167 163.525 208.752 162.154 217.196 162.466 218.519 161.413 220.087 160.993 222.383 158.882 221.9 157.409 217.315 156.883 215.508 156.038 211.644 154.772 208.389 152.453 201.268 151.714 200.786 150.448 194.632 149.502 192.707 146.97 186.434 144.971 183.656 144.971 178.95 143.072 173.525 140.753 168.457 140.962 166.524 138.536 160.734 137.797 156.995 136.325 155.547 135.378 151.206 131.894 140.95 129.155 135.28 128.947 133.711 122.725 120.564 122.305 120.2 119.247 114.41 117.875 113.564 114.817 111.632 113.764 108.377 113.764 107.53 115.45 106.445 116.503 106.561 121.141 104.027 114.503 104.027 113.445 105.231 111.551 104.629 107.121 106.317 99.8454 107.283 97.7391 108.733 91.5165 109.698 87.6181 110.419 85.0866 111.504 76.7577 113.919 73.4869 115.124 68.9554 116.21 64.3177 117.659 62.5253 119.227 61.0469 121.642 68.3225 129.966 70.854 132.858 74.9653 134.79 75.598 134.069 72.4335 130.086 72.5395 127.313 73.3849 126.831 74.5443 123.813 80.3415 119.83 81.288 120.194 82.1334 119.592 87.404 116.813 90.1482 115.847 92.3608 114.762 97.2113 112.591 98.0522 111.87 101.323 112.353 103.956 116.813 104.421 116.496 111.383 133.462 112.072 133.462 114.816 138.649 114.816 139.734 116.395 142.506 116.603 144.2 118.081 146.973 119.98 153.729 120.718 153.845 121.979 158.674 123.139 159.761 124.197 162.295 126.829 170.857 128.096 173.391 130.309 179.909 131.26 182.562 136.11 196.073 138.742 202.949 139.796 207.652 143.279 216.578 143.172 217.188 144.332 219.478 144.12 220.444 149.815 236.126 150.549 239.381 151.289 239.863 152.027 244.448 153.081 245.779 152.973 246.499 154.134 250.119 162.255 251.084 162.887 250.119 166.472 251.084 165.627 249.873 167.733 250.357 166.467 246.135 166.364 244.685 165.732 234.919 165.306 233.834 166.045 232.743 166.045 228.766 166.57 227.681 166.89 219.958 168.049 215.129 169.103 211.39 174.693 225.986 174.693 227.197 177.326 229.123 178.485 227.92 170.682 202.828 171.315 196.555 171.947 196.073 173.528 188.471 174.059 186.419 176.904 176.646 176.586 175.925 177.325 174.96 182.595 155.897 183.547 152.522 185.866 144.562 189.344 135.391 189.344 134.307 189.87 132.256 191.344 129.484 193.981 122.483 193.981 121.881 194.928 120.676 196.3 115.971 196.826 114.641 201.569 106.073 204.948 104.028 206.739 105.954 206.633 106.919 207.899 109.334 209.478 110.181 213.696 108.851 215.803 106.197 218.228 99.8056 216.122 95.8223 213.378 92.9242ZM104.019 118.38 104.166 121.88 103.32 142.147 100.687 164.466 100.687 166.034 99.6342 172.426 99.2088 174.841 98.2623 179.665 96.5764 186.784 95.731 191.734 94.2576 196.558 93.3063 201.983 89.4077 212.484 88.0356 216.706 86.5623 220.445 84.0306 226.718 81.499 232.388 76.6486 239.508 74.1171 243.365 71.9045 245.053 71.4845 246.383 66.7405 251.332 63.6823 253.383 60.5178 255.673 57.4598 257.241 54.3005 257.843 50.0828 256.638 48.1842 254.705 47.6583 252.171 48.2909 244.575 49.344 243.245 52.7161 235.769 54.5084 235.286 55.7742 234.802 56.9336 240.229 58.9386 241.432 62.6296 240.473 63.2622 239.508 67.4798 234.439 66.5285 232.388 66.5285 231.057 64.3159 228.047 59.7843 224.905 58.9389 225.997 58.0937 225.997 55.1418 227.564 52.9293 229.854 50.3977 231.667 48.7117 234.923 47.6585 235.644 45.0207 240.348 44.6007 243.127 43.968 243.609 43.2286 249.882 43.8612 250.968 43.8612 254.104 46.8131 259.291 50.9243 262.309 52.823 262.194 56.6203 263.04 60.9443 261.352 61.6782 261.468 65.0554 258.814 66.9539 258.93 68.0072 257.124 70.1134 254.828 70.852 254.107 71.7984 254.471 75.9096 249.766 76.9678 246.987 77.9143 246.75 79.494 245.3 80.7599 242.528 81.4984 242.164 83.2908 238.789 84.8705 237.221 88.3539 229.135 89.9335 226.363 89.6141 225.398 91.4063 221.533 92.1459 221.533 94.3583 215.624 94.2571 214.54 96.0444 211.887 96.3639 209.107 96.9965 208.386 98.6825 202.353 99.5233 201.148 99.4221 199.699 101.422 192.824 101.847 190.774 103.533 184.263 104.166 182.212 105.219 177.745 105.745 172.319 106.904 170.023 106.165 168.7 106.904 168.216 107.218 164.471 108.377 157.961 109.116 149.637 109.642 146.136 110.168 145.17 110.594 136.363 110.836 135.02Z" fill="#A06A55" fill-rule="nonzero" fill-opacity="1" transform="matrix(1.00116 0 0 1 376 224.73)"/></g></g></g></svg>