<?xml version="1.0" encoding="UTF-8" standalone="no"?>
<svg
   xmlns:osb="http://www.openswatchbook.org/uri/2009/osb"
   xmlns:dc="http://purl.org/dc/elements/1.1/"
   xmlns:cc="http://creativecommons.org/ns#"
   xmlns:rdf="http://www.w3.org/1999/02/22-rdf-syntax-ns#"
   xmlns:svg="http://www.w3.org/2000/svg"
   xmlns="http://www.w3.org/2000/svg"
   xmlns:xlink="http://www.w3.org/1999/xlink"
   xmlns:sodipodi="http://sodipodi.sourceforge.net/DTD/sodipodi-0.dtd"
   xmlns:inkscape="http://www.inkscape.org/namespaces/inkscape"
   width="793.70081"
   height="1122.5197"
   viewBox="0 0 210 297"
   version="1.1"
   id="svg8"
   sodipodi:docname="logo3.svg"
   inkscape:version="1.0.2 (e86c8708, 2021-01-15)">
  <defs
     id="defs2">
    <linearGradient
       id="linearGradient860"
       osb:paint="solid">
      <stop
         style="stop-color:#a06671;stop-opacity:1;"
         offset="0"
         id="stop858" />
    </linearGradient>
  </defs>
  <sodipodi:namedview
     id="base"
     pagecolor="#ffffff"
     bordercolor="#666666"
     borderopacity="1.0"
     inkscape:pageopacity="0.0"
     inkscape:pageshadow="2"
     inkscape:zoom="0.50215618"
     inkscape:cx="289.55435"
     inkscape:cy="593.40634"
     inkscape:document-units="px"
     inkscape:current-layer="layer1"
     inkscape:document-rotation="0"
     showgrid="false"
     units="px"
     inkscape:window-width="1440"
     inkscape:window-height="799"
     inkscape:window-x="-72"
     inkscape:window-y="27"
     inkscape:window-maximized="0" />
  <metadata
     id="metadata5">
    <rdf:RDF>
      <cc:Work
         rdf:about="">
        <dc:format>image/svg+xml</dc:format>
        <dc:type
           rdf:resource="http://purl.org/dc/dcmitype/StillImage" />
        <dc:title />
      </cc:Work>
    </rdf:RDF>
  </metadata>
  <g
     inkscape:label="Layer 1"
     inkscape:groupmode="layer"
     id="layer1">
    <ellipse
       style="fill:#fffffc;stroke-width:0.720437;stroke-dasharray:2.88175, 2.88174999999999981;fill-opacity:1"
       id="path852"
       cx="105.17679"
       cy="140.81046"
       rx="103.45258"
       ry="100.57889" />
    <path
       style="font-style:normal;font-variant:normal;font-weight:normal;font-stretch:normal;font-size:20.6215px;line-height:1.25;font-family:'Party LET';-inkscape-font-specification:'Party LET, Normal';font-variant-ligatures:normal;font-variant-caps:normal;font-variant-numeric:normal;font-variant-east-asian:normal;fill:#f2dfd7;fill-opacity:1;stroke-width:0.0899999;stroke-miterlimit:4;stroke-dasharray:none"
       sodipodi:type="inkscape:offset"
       inkscape:radius="1.4700906"
       inkscape:original="M -23.308594 198.93164 L -25.505859 199.44141 L -27.8125 201.57812 L -29.59375 203.96484 L -30.378906 205.66406 L -31.636719 207.92578 L -34.623047 214.58789 L -35.878906 218.48438 L -37.189453 222.56836 L -38.185547 225.65039 L -38.394531 225.90234 L -38.865234 228.22656 L -39.861328 232.5 L -41.537109 237.46484 L -41.433594 238.0957 L -41.957031 239.98242 L -42.324219 241.55078 L -43.685547 246.01367 L -44.105469 248.52734 L -44.996094 251.41992 L -45.78125 250.54102 L -46.148438 249.0918 L -48.400391 243.625 L -49.814453 239.16406 L -50.601562 237.3418 L -51.753906 234.38672 L -52.121094 233.50781 L -55.419922 224.58203 L -56.574219 220.93555 L -57.412109 219.42773 L -61.550781 208.23828 L -63.59375 203.08594 L -64.589844 202.64258 L -66.632812 203.20898 L -65.636719 204.1543 L -64.484375 206.35352 L -57.779297 223.69922 L -55.578125 229.35742 L -53.376953 235.45508 L -51.019531 242.05273 L -47.615234 250.85352 L -47.091797 252.55078 L -46.148438 256.00781 L -46.410156 257.07617 L -46.828125 259.46484 L -47.509766 263.86523 L -47.355469 264.55469 L -47.876953 265.37109 L -48.085938 266.56641 L -49.134766 266.31641 L -49.867188 263.92578 L -50.128906 262.98438 L -50.548828 260.97266 L -51.177734 259.27539 L -52.330078 255.56641 L -52.697266 255.31445 L -53.326172 252.10938 L -53.796875 251.10547 L -55.054688 247.83789 L -56.048828 246.39062 L -56.048828 243.93945 L -56.992188 241.11133 L -58.144531 238.4707 L -58.041016 237.46484 L -59.246094 234.44922 L -59.613281 232.5 L -60.345703 231.74609 L -60.814453 229.48438 L -62.546875 224.14062 L -63.908203 221.1875 L -64.009766 220.36914 L -67.101562 213.51953 L -67.310547 213.33008 L -68.830078 210.31445 L -69.511719 209.87305 L -71.03125 208.86719 L -71.554688 207.16992 L -71.554688 206.72852 L -70.716797 206.16406 L -70.193359 206.22461 L -67.890625 204.9043 L -71.1875 204.9043 L -71.714844 205.53125 L -72.654297 205.21875 L -74.855469 206.09766 L -78.472656 206.60156 L -79.517578 207.35547 L -82.609375 207.85938 L -84.546875 208.23438 L -85.804688 208.80078 L -89.943359 210.05859 L -91.570312 210.68555 L -93.820312 211.25195 L -96.125 212.00586 L -97.015625 212.82422 L -97.751953 214.08203 L -94.134766 218.41797 L -92.876953 219.92578 L -90.833984 220.93164 L -90.519531 220.55664 L -92.09375 218.48047 L -92.041016 217.03711 L -91.621094 216.78516 L -91.044922 215.21289 L -88.164062 213.13672 L -87.693359 213.32617 L -87.273438 213.01367 L -84.654297 211.56641 L -83.291016 211.0625 L -82.191406 210.49805 L -79.78125 209.36719 L -79.363281 208.99023 L -77.738281 209.24219 L -76.429688 211.56641 L -76.197266 211.40039 L -72.738281 220.24023 L -72.396484 220.24023 L -71.033203 222.94141 L -71.033203 223.50781 L -70.248047 224.95117 L -70.144531 225.83398 L -69.410156 227.2793 L -68.466797 230.79883 L -68.099609 230.85938 L -67.472656 233.375 L -66.896484 233.94141 L -66.371094 235.26172 L -65.0625 239.72266 L -64.433594 241.04297 L -63.333984 244.4375 L -62.861328 245.82031 L -60.451172 252.85938 L -59.142578 256.44141 L -58.619141 258.89258 L -56.888672 263.54297 L -56.941406 263.86133 L -56.365234 265.05273 L -56.470703 265.55664 L -53.640625 273.72656 L -53.275391 275.42188 L -52.908203 275.67383 L -52.541016 278.0625 L -52.019531 278.75586 L -52.072266 279.13086 L -51.496094 281.01758 L -47.460938 281.51953 L -47.146484 281.01758 L -45.365234 281.51953 L -45.785156 280.88867 L -44.738281 281.14062 L -45.367188 278.94141 L -45.417969 278.18555 L -45.732422 273.09766 L -45.943359 272.5332 L -45.576172 271.96484 L -45.576172 269.89258 L -45.314453 269.32617 L -45.15625 265.30273 L -44.580078 262.78711 L -44.056641 260.83984 L -41.279297 268.44336 L -41.279297 269.07617 L -39.970703 270.07812 L -39.394531 269.45117 L -43.271484 256.37891 L -42.957031 253.11133 L -42.642578 252.85938 L -41.857422 248.89844 L -41.59375 247.83008 L -40.179688 242.73828 L -40.337891 242.36328 L -39.970703 241.85938 L -37.351562 231.92773 L -36.878906 230.16992 L -35.726562 226.02344 L -33.998047 221.24414 L -33.998047 220.67969 L -33.738281 219.61133 L -33.005859 218.16602 L -31.695312 214.51953 L -31.695312 214.20703 L -31.224609 213.57812 L -30.542969 211.12695 L -30.28125 210.43359 L -27.923828 205.9707 L -26.246094 204.9043 L -25.355469 205.9082 L -25.408203 206.41211 L -24.779297 207.66992 L -23.994141 208.11133 L -21.898438 207.41797 L -20.851562 206.03516 L -19.646484 202.70508 L -20.693359 200.63086 L -22.056641 199.11914 L -23.308594 198.93164 z M -76.398438 212.38281 L -76.324219 214.20508 L -76.744141 224.76562 L -78.052734 236.39258 L -78.052734 237.20898 L -78.576172 240.53906 L -78.787109 241.79883 L -79.257812 244.31055 L -80.095703 248.02148 L -80.515625 250.59961 L -81.248047 253.11133 L -81.720703 255.93945 L -83.658203 261.41016 L -84.339844 263.60938 L -85.072266 265.55664 L -86.330078 268.82422 L -87.587891 271.7793 L -89.998047 275.48828 L -91.255859 277.49805 L -92.355469 278.37695 L -92.564453 279.07031 L -94.921875 281.64844 L -96.441406 282.7168 L -98.013672 283.91016 L -99.533203 284.72656 L -101.10352 285.04102 L -103.19922 284.41406 L -104.14258 283.40625 L -104.4043 282.08594 L -104.08984 278.12891 L -103.56641 277.43555 L -101.89062 273.54102 L -101 273.28906 L -100.37109 273.03711 L -99.794922 275.86328 L -98.798828 276.49023 L -96.964844 275.99219 L -96.650391 275.48828 L -94.554688 272.84766 L -95.027344 271.7793 L -95.027344 271.08594 L -96.126953 269.51758 L -98.378906 267.88086 L -98.798828 268.44922 L -99.21875 268.44922 L -100.68555 269.26562 L -101.78516 270.45898 L -103.04297 271.4043 L -103.88086 273.09961 L -104.4043 273.47461 L -105.71484 275.92578 L -105.92383 277.375 L -106.23828 277.625 L -106.60547 280.89453 L -106.29102 281.45898 L -106.29102 283.09375 L -104.82422 285.79688 L -102.78125 287.36719 L -101.83789 287.30859 L -99.951172 287.74805 L -97.802734 286.86914 L -97.4375 286.92969 L -95.759766 285.54688 L -94.816406 285.60742 L -94.292969 284.66602 L -93.246094 283.4707 L -92.878906 283.0957 L -92.408203 283.28516 L -90.365234 280.83398 L -89.839844 279.38477 L -89.369141 279.26172 L -88.583984 278.50586 L -87.955078 277.0625 L -87.587891 276.87305 L -86.697266 275.11523 L -85.912109 274.29688 L -84.181641 270.08398 L -83.396484 268.64062 L -83.556641 268.13672 L -82.666016 266.125 L -82.296875 266.125 L -81.199219 263.04492 L -81.248047 262.48047 L -80.361328 261.09766 L -80.201172 259.65039 L -79.886719 259.27539 L -79.048828 256.13086 L -78.630859 255.50391 L -78.681641 254.75 L -77.6875 251.16797 L -77.476562 250.09766 L -76.638672 246.70703 L -76.324219 245.63867 L -75.800781 243.31055 L -75.541016 240.48438 L -74.964844 239.28711 L -75.332031 238.59766 L -74.964844 238.34766 L -74.808594 236.39648 L -74.232422 233.00391 L -73.865234 228.66602 L -73.603516 226.84375 L -73.341797 226.33984 L -73.130859 221.75195 L -73.009766 221.05078 L -76.398438 212.38281 z "
       xlink:href="#path837"
       id="path854-3"
       transform="matrix(1.5906132,0,0,1.5170949,201.48012,-228.01324)"
       d="m -23.294922,197.46094 a 1.4702376,1.4702376 0 0 0 -0.345703,0.0391 l -2.197266,0.50977 a 1.4702376,1.4702376 0 0 0 -0.667968,0.35351 L -28.8125,200.5 a 1.4702376,1.4702376 0 0 0 -0.177734,0.19922 l -1.78125,2.38672 a 1.4702376,1.4702376 0 0 0 -0.15625,0.26172 l -0.761719,1.65039 -1.232422,2.21289 a 1.4702376,1.4702376 0 0 0 -0.05664,0.11328 l -2.986328,6.66211 a 1.4702376,1.4702376 0 0 0 -0.05664,0.15039 l -1.25586,3.89648 a 1.4702376,1.4702376 0 0 0 -0.002,0.002 l -1.308594,4.08203 -0.910156,2.8125 -0.02734,0.0332 a 1.4702376,1.4702376 0 0 0 -0.310547,0.64844 l -0.466796,2.30273 -0.97461,4.1836 -1.652344,4.89648 a 1.4702376,1.4702376 0 0 0 -0.05859,0.70898 l 0.05078,0.31055 -0.435547,1.57617 a 1.4702376,1.4702376 0 0 0 -0.01563,0.0566 l -0.355469,1.52149 -1.347656,4.41601 a 1.4702376,1.4702376 0 0 0 -0.04297,0.1875 l -0.228515,1.36524 -1.654297,-4.01563 -1.394531,-4.40039 a 1.4702376,1.4702376 0 0 0 -0.05273,-0.13867 l -0.777344,-1.79883 -1.142578,-2.92968 a 1.4702376,1.4702376 0 0 0 -0.01172,-0.0332 l -0.355469,-0.85156 -3.277344,-8.86328 -1.142578,-3.61328 a 1.4702376,1.4702376 0 0 0 -0.117187,-0.27149 l -0.783204,-1.4082 -4.099609,-11.08398 a 1.4702376,1.4702376 0 0 0 -0.01172,-0.0312 l -2.042968,-5.15235 a 1.4702376,1.4702376 0 0 0 -0.769532,-0.80273 l -0.996094,-0.44336 a 1.4702376,1.4702376 0 0 0 -0.990234,-0.0723 l -2.042969,0.56641 a 1.4702376,1.4702376 0 0 0 -1.058593,1.64062 H -71.1875 a 1.4702376,1.4702376 0 0 0 -1.087891,0.48047 l 0.07813,-0.0918 a 1.4702376,1.4702376 0 0 0 -1.001953,0.0312 l -2.035156,0.8125 -3.441406,0.48046 a 1.4702376,1.4702376 0 0 0 -0.65625,0.26368 l -0.763672,0.55078 -2.75,0.44726 a 1.4702376,1.4702376 0 0 0 -0.04297,0.008 l -1.9375,0.375 a 1.4702376,1.4702376 0 0 0 -0.324219,0.10351 l -1.171875,0.52735 -4.048828,1.23046 a 1.4702376,1.4702376 0 0 0 -0.101562,0.0352 l -1.542969,0.59375 -2.164063,0.54492 a 1.4702376,1.4702376 0 0 0 -0.09766,0.0293 l -2.304687,0.75391 a 1.4702376,1.4702376 0 0 0 -0.53711,0.31445 l -0.890625,0.81836 a 1.4702376,1.4702376 0 0 0 -0.27539,0.33984 l -0.736328,1.25781 a 1.4702376,1.4702376 0 0 0 0.140625,1.6836 l 3.617187,4.33594 1.257813,1.50781 a 1.4702376,1.4702376 0 0 0 0.480468,0.37695 l 2.042969,1.00586 a 1.4702376,1.4702376 0 0 0 1.775391,-0.37305 l 0.314453,-0.375 a 1.4702376,1.4702376 0 0 0 0.04492,-1.83398 l -1.257813,-1.6582 0.0039,-0.12305 -0.263672,0.1582 a 1.4702376,1.4702376 0 0 0 0.625,-0.7539 l 0.419922,-1.14844 1.859374,-1.33985 -0.28125,-0.11328 a 1.4702376,1.4702376 0 0 0 1.425782,-0.18359 l 0.341797,-0.25391 2.433593,-1.3457 1.259766,-0.46484 a 1.4702376,1.4702376 0 0 0 0.162109,-0.0703 l 1.076172,-0.55273 2.386719,-1.12109 a 1.4702376,1.4702376 0 0 0 0.339844,-0.22071 l -0.08203,0.0742 0.228516,0.0352 0.835938,1.48437 a 1.4702376,1.4702376 0 0 0 -0.0332,0.37305 l 0.07227,1.76172 -0.416016,10.44922 -1.302734,11.57422 a 1.4702376,1.4702376 0 0 0 -0.0098,0.16406 v 0.70117 l -0.503906,3.20898 -0.207031,1.24024 -0.462891,2.4707 -0.832031,3.6836 a 1.4702376,1.4702376 0 0 0 -0.01758,0.0879 l -0.404297,2.49023 -0.708984,2.42383 a 1.4702376,1.4702376 0 0 0 -0.03711,0.16992 l -0.453125,2.70117 -1.894531,5.34961 a 1.4702376,1.4702376 0 0 0 -0.01758,0.0547 l -0.667969,2.1582 -0.714843,1.90039 -1.248047,3.23828 -1.197266,2.81446 -2.339844,3.60156 a 1.4702376,1.4702376 0 0 0 -0.01367,0.0215 l -1.125,1.79688 -0.904297,0.72266 a 1.4702376,1.4702376 0 0 0 -0.490234,0.7246 l -0.111328,0.37305 -2.023438,2.21094 -1.388671,0.97656 a 1.4702376,1.4702376 0 0 0 -0.04297,0.0312 l -1.480469,1.125 -1.226563,0.6582 -0.99609,0.19922 -1.36328,-0.4082 -0.38672,-0.41016 -0.13868,-0.70898 0.26368,-3.32812 0.26562,-0.34961 a 1.4702376,1.4702376 0 0 0 0.17578,-0.30469 l 0.92383,-2.14258 0.0566,0.28125 a 1.4702376,1.4702376 0 0 0 0.65821,0.95117 l 0.996089,0.62696 a 1.4702376,1.4702376 0 0 0 1.167969,0.17382 l 1.833984,-0.49804 a 1.4702376,1.4702376 0 0 0 0.863281,-0.64063 l 0.269531,-0.43164 2.044922,-2.57617 a 1.4702376,1.4702376 0 0 0 0.191406,-1.50977 l -0.345703,-0.7832 v -0.38281 a 1.4702376,1.4702376 0 0 0 -0.267578,-0.84375 l -1.099609,-1.56836 a 1.4702376,1.4702376 0 0 0 -0.337891,-0.34571 l -2.251953,-1.63671 a 1.4702376,1.4702376 0 0 0 -2.023437,0.28711 h 0.318359 a 1.4702376,1.4702376 0 0 0 -0.714844,0.18554 l -1.466796,0.81641 a 1.4702376,1.4702376 0 0 0 -0.36719,0.28906 l -1.00781,1.0957 -1.15039,0.86329 a 1.4702376,1.4702376 0 0 0 -0.43555,0.52539 l -0.67383,1.36523 -0.22461,0.16016 a 1.4702376,1.4702376 0 0 0 -0.4414,0.50195 l -1.31055,2.45117 a 1.4702376,1.4702376 0 0 0 -0.1582,0.48438 l -0.125,0.87109 0.14258,-0.11328 a 1.4702376,1.4702376 0 0 0 -0.54688,0.98633 l -0.36719,3.26953 a 1.4702376,1.4702376 0 0 0 0.17579,0.87891 l 0.1289,0.23242 v 1.25195 a 1.4702376,1.4702376 0 0 0 0.17774,0.70117 l 1.46679,2.70313 a 1.4702376,1.4702376 0 0 0 0.39649,0.46484 l 2.04297,1.57031 a 1.4702376,1.4702376 0 0 0 0.98828,0.30078 l 0.72851,-0.0449 1.67578,0.39063 a 1.4702376,1.4702376 0 0 0 0.890629,-0.0703 l 1.761719,-0.72266 a 1.4702376,1.4702376 0 0 0 1.130859,-0.32227 l 1.228515,-1.01367 0.363282,0.0234 a 1.4702376,1.4702376 0 0 0 1.378906,-0.75195 l 0.447266,-0.80469 0.667968,-0.76367 a 1.4702376,1.4702376 0 0 0 1.136719,-0.52735 l 2.042969,-2.45117 a 1.4702376,1.4702376 0 0 0 0.253906,-0.43945 l 0.261719,-0.72461 -0.277344,0.0723 a 1.4702376,1.4702376 0 0 0 0.648438,-0.36328 l 0.785156,-0.75586 a 1.4702376,1.4702376 0 0 0 0.328125,-0.4707 l 0.419922,-0.96484 -0.09766,0.0508 a 1.4702376,1.4702376 0 0 0 0.636718,-0.64258 l 0.792969,-1.5625 0.632813,-0.66016 a 1.4702376,1.4702376 0 0 0 0.298828,-0.45898 l 1.701172,-4.13867 0.746093,-1.37305 a 1.4702376,1.4702376 0 0 0 0.109375,-1.14844 l 0.0098,0.0274 0.277344,-0.62696 h -0.587891 a 1.4702376,1.4702376 0 0 0 1.384766,-0.97656 l 1.097656,-3.08008 a 1.4702376,1.4702376 0 0 0 0.08008,-0.62109 l -0.0059,-0.0645 0.617187,-0.9629 a 1.4702376,1.4702376 0 0 0 0.222656,-0.63085 l 0.111329,-1.00586 0.0293,-0.0332 a 1.4702376,1.4702376 0 0 0 0.292969,-0.5664 l 0.775391,-2.91016 0.283203,-0.42383 a 1.4702376,1.4702376 0 0 0 0.244141,-0.91601 l -0.0332,-0.50196 0.925782,-3.34179 a 1.4702376,1.4702376 0 0 0 0.02539,-0.10743 l 0.205078,-1.0371 0.822266,-3.32422 0.304688,-1.03711 a 1.4702376,1.4702376 0 0 0 0.02344,-0.0937 l 0.523437,-2.32813 a 1.4702376,1.4702376 0 0 0 0.03125,-0.1875 l 0.234376,-2.5625 0.460937,-0.95898 a 1.4702376,1.4702376 0 0 0 0.136719,-0.79297 l -0.632813,0.43164 a 1.4702376,1.4702376 0 0 0 0.564453,-0.74805 1.4702376,1.4702376 0 0 0 -0.06836,-0.16797 l 0.07617,0.14258 A 1.4702376,1.4702376 0 0 0 -73.5,238.46484 l 0.152344,-1.88672 0.564453,-3.32812 a 1.4702376,1.4702376 0 0 0 0.01563,-0.12305 l 0.363281,-4.29492 0.220703,-1.53125 0.146485,-0.2832 a 1.4702376,1.4702376 0 0 0 0.164062,-0.60938 l 0.05859,-1.25976 0.138672,0.25586 0.07031,0.60156 a 1.4702376,1.4702376 0 0 0 0.150391,0.49414 l 0.664062,1.30859 0.904297,3.3711 a 1.4702376,1.4702376 0 0 0 1.128907,1.06054 l -0.535157,-0.0879 0.394531,1.57813 a 1.4702376,1.4702376 0 0 0 0.394532,0.69336 l 0.355468,0.34961 0.386719,0.96875 1.289063,4.39453 a 1.4702376,1.4702376 0 0 0 0.08203,0.21875 l 0.587891,1.23242 1.070312,3.30273 a 1.4702376,1.4702376 0 0 0 0.0078,0.0215 l 0.472656,1.38281 a 1.4702376,1.4702376 0 0 0 0,0.002 l 2.410156,7.03906 a 1.4702376,1.4702376 0 0 0 0.0098,0.0273 l 1.273437,3.48633 0.501953,2.34961 a 1.4702376,1.4702376 0 0 0 0.06055,0.20703 l 1.59375,4.2832 0.0098,-0.0684 a 1.4702376,1.4702376 0 0 0 0.126953,0.88086 l 0.359375,0.74024 -0.0039,0.0137 a 1.4702376,1.4702376 0 0 0 0.05078,0.78125 l 2.800781,8.08594 0.345703,1.60937 a 1.4702376,1.4702376 0 0 0 0.605469,0.90235 l -0.15625,-0.10938 0.269531,1.75977 a 1.4702376,1.4702376 0 0 0 0.277344,0.66015 l 0.15625,0.20899 0.0332,-0.22852 a 1.4702376,1.4702376 0 0 0 0.04883,0.63477 l 0.576172,1.88672 a 1.4702376,1.4702376 0 0 0 1.22461,1.02929 l 4.035156,0.50196 a 1.4702376,1.4702376 0 0 0 1.408203,-0.64649 l -0.25,0.39844 0.720703,0.20312 a 1.4702376,1.4702376 0 0 0 1.447266,-0.38476 1.4702376,1.4702376 0 0 0 0.992187,-1.8125 l -0.585937,-2.04883 -0.04102,-0.5957 -0.314453,-5.08399 a 1.4702376,1.4702376 0 0 0 -0.04687,-0.28906 l -0.0293,0.043 a 1.4702376,1.4702376 0 0 0 0.02734,-0.0449 1.4702376,1.4702376 0 0 0 -0.0293,-0.10157 l 0.03516,0.0937 a 1.4702376,1.4702376 0 0 0 0.203125,-0.74414 v -1.75 l 0.125,-0.27148 a 1.4702376,1.4702376 0 0 0 0.134766,-0.55859 l 0.130859,-3.32422 0.964844,2.64257 v 0.37305 a 1.4702376,1.4702376 0 0 0 0.576172,1.16797 l 1.308594,1.00195 a 1.4702376,1.4702376 0 0 0 1.976562,-0.17382 l 0.576172,-0.62696 a 1.4702376,1.4702376 0 0 0 0.328125,-1.41211 l -3.796875,-12.79882 0.228516,-2.36329 -0.169922,0.13477 a 1.4702376,1.4702376 0 0 0 0.521484,-0.86133 l 0.779297,-3.92773 0.25,-1.01368 1.408203,-5.07226 a 1.4702376,1.4702376 0 0 0 0.05078,-0.50195 l -0.07031,0.0957 a 1.4702376,1.4702376 0 0 0 0.07031,-0.10352 1.4702376,1.4702376 0 0 0 -0.113281,-0.45507 l 0.158203,0.37304 a 1.4702376,1.4702376 0 0 0 0.119141,-0.30468 l 2.617187,-9.92774 0.470703,-1.75 1.136719,-4.08594 1.708985,-4.72656 a 1.4702376,1.4702376 0 0 0 0.08789,-0.5 v -0.38867 l 0.177735,-0.73047 0.654297,-1.29492 a 1.4702376,1.4702376 0 0 0 0.07227,-0.16602 l 1.310547,-3.64648 a 1.4702376,1.4702376 0 0 0 0.08789,-0.49805 v 0.17578 l 0.177734,-0.23633 a 1.4702376,1.4702376 0 0 0 0.238281,-0.48632 l 0.664063,-2.38868 0.207031,-0.54492 2.130859,-4.03711 0.04102,-0.0254 a 1.4702376,1.4702376 0 0 0 0.04297,0.0937 l 0.628906,1.25781 a 1.4702376,1.4702376 0 0 0 0.59375,0.62305 l 0.785156,0.44141 a 1.4702376,1.4702376 0 0 0 1.181641,0.11523 l 2.095703,-0.69336 a 1.4702376,1.4702376 0 0 0 0.710938,-0.50976 l 1.046874,-1.38281 a 1.4702376,1.4702376 0 0 0 0.210938,-0.38672 l 1.205078,-3.33008 a 1.4702376,1.4702376 0 0 0 -0.07031,-1.16211 l -1.046875,-2.07422 a 1.4702376,1.4702376 0 0 0 -0.220703,-0.32227 l -1.363282,-1.51171 a 1.4702376,1.4702376 0 0 0 -0.875,-0.46875 l -1.251953,-0.1875 a 1.4702376,1.4702376 0 0 0 -0.203125,-0.0176 z m -43.273437,8.08398 0.742187,1.41602 6.675781,17.26758 a 1.4702376,1.4702376 0 0 0 0.002,0.004 l 2.19336,5.64063 2.195312,6.07812 2.355469,6.59571 a 1.4702376,1.4702376 0 0 0 0.01367,0.0371 l 3.386719,8.75196 0.5,1.625 0.83789,3.0664 -0.171875,0.69922 a 1.4702376,1.4702376 0 0 0 -0.01953,0.0957 l -0.417969,2.38867 a 1.4702376,1.4702376 0 0 0 -0.0059,0.0293 l -0.480469,3.09961 -0.347656,-1.66796 a 1.4702376,1.4702376 0 0 0 -0.06055,-0.21094 l -0.615234,-1.66016 -1.140625,-3.66992 a 1.4702376,1.4702376 0 0 0 -0.572266,-0.77734 l 0.126953,0.0879 -0.511718,-2.61524 a 1.4702376,1.4702376 0 0 0 -0.113282,-0.34179 l -0.447265,-0.95508 -1.240235,-3.21875 a 1.4702376,1.4702376 0 0 0 -0.160156,-0.30469 l -0.734375,-1.07227 v -1.99414 a 1.4702376,1.4702376 0 0 0 -0.07617,-0.46484 l -0.943359,-2.82813 a 1.4702376,1.4702376 0 0 0 -0.04687,-0.12304 l -0.998047,-2.28711 0.06445,-0.6211 a 1.4702376,1.4702376 0 0 0 -0.09766,-0.69531 l -1.152344,-2.88281 -0.339844,-1.80859 a 1.4702376,1.4702376 0 0 0 -0.390625,-0.75196 l -0.433594,-0.44726 -0.382812,-1.84375 a 1.4702376,1.4702376 0 0 0 -0.04102,-0.1543 l -1.732422,-5.34375 a 1.4702376,1.4702376 0 0 0 -0.0625,-0.16211 l -1.265624,-2.74609 -0.07422,-0.5918 a 1.4702376,1.4702376 0 0 0 -0.119141,-0.42383 l -3.091797,-6.84961 a 1.4702376,1.4702376 0 0 0 -0.351562,-0.48437 l -0.0078,-0.006 -1.396484,-2.77149 a 1.4702376,1.4702376 0 0 0 -0.513672,-0.57226 l -0.675781,-0.4375 -1.074219,-0.71094 -0.08398,-0.27344 a 1.4702376,1.4702376 0 0 0 0.402343,-0.1582 l 2.302735,-1.32031 a 1.4702376,1.4702376 0 0 0 0.591797,-0.63477 z m 39.697265,0.71485 a 1.4702376,1.4702376 0 0 0 -0.0059,0.14843 l -0.0078,-0.01 z m -66.085937,78.38867 a 1.4702376,1.4702376 0 0 0 0.511719,0.10547 l -0.07031,0.0723 z" />
    <path
       id="path837-9"
       style="font-style:normal;font-variant:normal;font-weight:normal;font-stretch:normal;font-size:20.6215px;line-height:1.25;font-family:'Party LET';-inkscape-font-specification:'Party LET, Normal';font-variant-ligatures:normal;font-variant-caps:normal;font-variant-numeric:normal;font-variant-east-asian:normal;fill:#a06a55;fill-opacity:1;stroke-width:0.796753;stroke-miterlimit:4;stroke-dasharray:none"
       d="m 166.65871,73.159613 -3.49363,0.774067 -3.66969,3.242457 -2.83328,3.61906 -1.24862,2.578409 -2.00086,3.430759 -4.75021,10.10945 -1.99692,5.909745 -2.08497,6.19741 -1.58468,4.67556 -0.33196,0.38166 -0.74807,3.52495 -1.58463,6.48508 -2.6653,7.53104 0.16374,0.95726 -0.83237,2.86077 -0.58447,2.37958 -2.16503,6.77261 -0.66814,3.81268 -1.41663,4.3879 -1.24866,-1.33373 -0.58377,-2.19653 -3.58162,-8.29466 -2.24901,-6.76747 -1.25264,-2.76648 -1.83282,-4.48203 -0.58445,-1.33359 -5.24647,-13.54024 -1.83681,-5.53331 -1.33272,-2.28535 -6.58295,-16.97618 -3.24953,-7.818728 -1.58464,-0.669934 -3.249558,0.858099 1.584739,1.432957 1.832839,3.336714 10.66493,26.316822 3.50153,8.58225 3.50162,9.25155 3.74976,10.01004 5.41445,13.35192 0.83241,2.57319 1.50071,5.24546 -0.41635,1.62141 -0.66461,3.6242 -1.08443,6.67334 0.24753,1.04593 -0.83243,1.23948 -0.33192,1.81483 -1.66877,-0.38164 -1.16449,-3.62433 -0.41564,-1.42784 -0.66816,-3.05431 -1.00048,-2.57308 -1.83288,-5.62736 -0.58375,-0.38167 -1.00045,-4.86378 -0.74808,-1.52192 -2.00093,-4.95806 -1.5807,-2.19647 v -3.71844 l -1.50063,-4.28851 -1.83284,-4.00606 0.16447,-1.52715 -1.91684,-4.57613 -0.58377,-2.95493 -1.16459,-1.14537 -0.74805,-3.43076 -2.75323,-8.10632 -2.16502,-4.48202 -0.16391,-1.23956 -4.918242,-10.391724 -0.331961,-0.287611 -2.417133,-4.57621 -1.084432,-0.668569 -2.41708,-1.527062 -0.832416,-2.573175 v -0.669251 l 1.332616,-0.857083 0.832432,0.09133 3.665599,-2.003066 h -5.246446 l -0.836361,0.95216 -1.496639,-0.475716 -3.501656,1.333663 -5.750607,0.763994 -1.664768,1.145376 -4.918239,0.762947 -3.081352,0.56976 -2.000929,0.8581 -6.583073,1.908945 -2.585176,0.952144 -3.581711,0.858099 -3.6656,1.145361 -1.416679,1.239603 -1.168496,1.908748 5.750575,6.579247 2.000944,2.2854 3.249464,1.52717 0.500057,-0.56976 -2.501192,-3.14834 0.08382,-2.19137 0.668169,-0.38165 0.91648,-2.384832 4.582,-3.148427 0.748081,0.287596 0.668169,-0.475701 4.165946,-2.196541 2.16896,-0.763023 1.748832,-0.858023 3.833727,-1.715531 0.66459,-0.569745 2.58524,0.381641 2.080904,3.52497 0.367702,-0.250807 5.502567,13.409303 h 0.544419 l 2.169024,4.10024 v 0.8581 l 1.248568,2.19135 0.163928,1.33887 1.168576,2.19127 1.500712,5.33977 0.583755,0.0913 0.996535,3.81787 0.916421,0.8581 0.836328,2.00307 2.080988,6.76735 1.00045,2.00319 1.74882,5.1514 0.75194,2.09715 3.83382,10.67949 2.08095,5.43376 0.83229,3.71843 2.75337,7.0551 -0.0845,0.48183 0.91638,1.80945 -0.168,0.76295 4.50209,12.39494 0.58019,2.57301 0.58447,0.38167 0.58374,3.62417 0.83243,1.05116 -0.0845,0.56975 0.91648,2.86075 6.4189,0.76303 0.50006,-0.76303 2.83325,0.76303 -0.66818,-0.95726 1.66478,0.38166 -1.00038,-3.33673 -0.081,-1.14536 -0.50006,-7.7193 -0.33624,-0.85708 0.58376,-0.86312 v -3.14312 l 0.41566,-0.85804 0.25249,-6.10341 0.91642,-3.81786 0.83235,-2.95488 4.41806,11.5373 v 0.95727 l 2.08096,1.5219 0.91642,-0.9512 -6.16687,-19.83174 0.50002,-4.95791 0.50004,-0.38167 1.24857,-6.00901 0.42066,-1.6214 2.24903,-7.72455 -0.25254,-0.56977 0.58447,-0.76295 4.16588,-15.06722 0.75199,-2.66728 1.83282,-6.29158 2.74928,-7.24865 v -0.85705 l 0.41561,-1.62127 1.1646,-2.19129 2.08491,-5.533268 v -0.475685 l 0.74808,-0.95222 1.08451,-3.71846 0.41563,-1.051225 3.74968,-6.772691 2.66921,-1.61601 1.41668,1.52192 -0.0838,0.763023 1.00048,1.908793 1.24857,0.669251 3.33359,-1.051164 1.66475,-2.097187 1.91688,-5.052047 -1.66475,-3.148397 -2.16904,-2.290646 z m -84.442836,20.407081 0.115797,2.766635 -0.668153,16.019121 -2.080968,17.64038 v 1.23947 l -0.832415,5.05195 -0.33624,1.90896 -0.748065,3.81268 -1.332552,5.62739 -0.668169,3.91199 -1.164568,3.81255 -0.75193,4.28853 -3.081447,8.29971 -1.084433,3.33675 -1.164569,2.95482 -2.000915,4.95806 -2.001006,4.48202 -3.833727,5.62736 -2.000912,3.04904 -1.748832,1.3334 -0.331929,1.05126 -3.749663,3.91198 -2.417144,1.62126 -2.501192,1.80958 -2.417048,1.23948 -2.497119,0.4757 -3.333591,-0.95224 -1.500664,-1.52727 -0.415643,-2.00293 0.500057,-6.0039 0.832272,-1.05118 2.665295,-5.90973 1.4166,-0.38165 1.000528,-0.38166 0.916352,4.28848 1.58476,0.95117 2.917327,-0.75789 0.500073,-0.76298 3.333464,-4.0061 -0.751946,-1.62127 v -1.05131 l -1.748752,-2.3796 -3.581711,-2.4842 -0.668169,0.86315 h -0.668153 l -2.333064,1.23947 -1.748831,1.80966 -2.000848,1.43288 -1.332616,2.57322 -0.832479,0.56973 -2.084913,3.71845 -0.331945,2.19654 -0.500041,0.38164 -0.584455,4.95785 0.500042,0.85802 v 2.4791 l 2.333063,4.10026 3.24948,2.38482 1.500727,-0.0913 3.001376,0.66856 3.417592,-1.33357 0.580176,0.0913 2.669224,-2.09711 1.50068,0.0913 0.832415,-1.42777 1.664752,-1.81476 0.583755,-0.56976 0.748065,0.28759 3.24948,-3.71841 0.836408,-2.19656 0.748097,-0.18801 1.248615,-1.14535 1.000448,-2.19123 0.583755,-0.28759 1.41668,-2.66727 1.248624,-1.23942 2.753235,-6.39101 1.248552,-2.19142 -0.252542,-0.76295 1.4166,-3.05425 h 0.584471 l 1.748736,-4.6703 -0.08001,-0.85708 1.412671,-2.09725 0.252542,-2.19669 0.500041,-0.56974 1.332616,-4.76961 0.66459,-0.95115 -0.08001,-1.14528 1.580704,-5.43389 0.336239,-1.62141 1.332584,-5.1462 0.500073,-1.62115 0.832257,-3.5302 0.415627,-4.2886 0.916479,-1.81469 -0.58447,-1.04599 0.58447,-0.38166 0.247548,-2.96024 0.916384,-5.14608 0.583771,-6.57925 0.416327,-2.76669 0.415643,-0.76401 0.336239,-6.96089 0.191685,-1.06175 z" />
  </g>
</svg>
