<?xml version="1.0" encoding="UTF-8" standalone="no"?>
<svg
   xmlns:osb="http://www.openswatchbook.org/uri/2009/osb"
   xmlns:dc="http://purl.org/dc/elements/1.1/"
   xmlns:cc="http://creativecommons.org/ns#"
   xmlns:rdf="http://www.w3.org/1999/02/22-rdf-syntax-ns#"
   xmlns:svg="http://www.w3.org/2000/svg"
   xmlns="http://www.w3.org/2000/svg"
   xmlns:xlink="http://www.w3.org/1999/xlink"
   xmlns:sodipodi="http://sodipodi.sourceforge.net/DTD/sodipodi-0.dtd"
   xmlns:inkscape="http://www.inkscape.org/namespaces/inkscape"
   width="793.70081"
   height="1122.5197"
   viewBox="0 0 210 297"
   version="1.1"
   id="svg8"
   inkscape:version="1.0.2 (e86c8708, 2021-01-15)"
   sodipodi:docname="drawing.svg">
  <defs
     id="defs2">
    <linearGradient
       id="linearGradient860"
       osb:paint="solid">
      <stop
         style="stop-color:#000000;stop-opacity:1;"
         offset="0"
         id="stop858" />
    </linearGradient>
  </defs>
  <sodipodi:namedview
     id="base"
     pagecolor="#ffffff"
     bordercolor="#666666"
     borderopacity="1.0"
     inkscape:pageopacity="0.0"
     inkscape:pageshadow="2"
     inkscape:zoom="0.15792016"
     inkscape:cx="632.69252"
     inkscape:cy="415.00333"
     inkscape:document-units="px"
     inkscape:current-layer="layer1"
     inkscape:document-rotation="0"
     showgrid="false"
     units="px"
     inkscape:window-width="826"
     inkscape:window-height="793"
     inkscape:window-x="69"
     inkscape:window-y="25"
     inkscape:window-maximized="0" />
  <metadata
     id="metadata5">
    <rdf:RDF>
      <cc:Work
         rdf:about="">
        <dc:format>image/svg+xml</dc:format>
        <dc:type
           rdf:resource="http://purl.org/dc/dcmitype/StillImage" />
        <dc:title />
      </cc:Work>
    </rdf:RDF>
  </metadata>
  <g
     inkscape:label="Layer 1"
     inkscape:groupmode="layer"
     id="layer1">
    <path
       style="font-style:normal;font-variant:normal;font-weight:normal;font-stretch:normal;font-size:20.6215px;line-height:1.25;font-family:'Party LET';-inkscape-font-specification:'Party LET, Normal';font-variant-ligatures:normal;font-variant-caps:normal;font-variant-numeric:normal;font-variant-east-asian:normal;fill:#f2dfd7;fill-opacity:1;stroke-width:0.0899999;stroke-miterlimit:4;stroke-dasharray:none"
       sodipodi:type="inkscape:offset"
       inkscape:radius="1.4700906"
       inkscape:original="M 499.54297 -253.00586 L 478.15234 -248.62109 L 455.68164 -230.25781 L 438.33398 -209.76172 L 430.68945 -195.1582 L 418.4375 -175.72852 L 389.35156 -118.47266 L 377.125 -85.003906 L 364.35938 -49.904297 L 354.65625 -23.423828 L 352.62305 -21.261719 L 348.04297 -1.2988281 L 338.33984 35.429688 L 322.02148 78.082031 L 323.02344 83.503906 L 317.92773 99.705078 L 314.34766 113.18164 L 301.0918 151.53906 L 297.00195 173.13281 L 288.32812 197.98242 L 280.68164 190.42969 L 277.10742 177.98828 L 255.17773 131.01172 L 241.40625 92.685547 L 233.73633 77.015625 L 222.51367 51.632812 L 218.93555 44.080078 L 186.8125 -32.605469 L 175.56445 -63.943359 L 167.4043 -76.886719 L 127.09766 -173.03125 L 107.20117 -217.3125 L 97.498047 -221.10742 L 77.601562 -216.24805 L 87.304688 -208.13086 L 98.527344 -189.23438 L 163.82812 -40.1875 L 185.26758 8.4179688 L 206.70703 60.814453 L 229.66797 117.50586 L 262.82031 193.125 L 267.91602 207.69727 L 277.10547 237.40625 L 274.55664 246.58789 L 270.48633 267.11328 L 263.84766 304.9082 L 265.36328 310.83203 L 260.26562 317.85156 L 258.23438 328.13086 L 248.01562 325.96875 L 240.88477 305.44141 L 238.33984 297.35547 L 234.25 280.05859 L 228.12305 265.48438 L 216.90039 233.61328 L 213.32617 231.45312 L 207.20117 203.90625 L 202.62109 195.28711 L 190.36914 167.20703 L 180.68945 154.76758 L 180.68945 133.70898 L 171.50195 109.41992 L 160.2793 86.732422 L 161.28711 78.082031 L 149.55078 52.166016 L 145.97656 35.429688 L 138.8457 28.943359 L 134.26367 9.5136719 L 117.40625 -36.396484 L 104.15039 -61.78125 L 103.14648 -68.800781 L 73.033203 -127.6543 L 71 -129.2832 L 56.201172 -155.20117 L 49.560547 -158.98828 L 34.759766 -167.63672 L 29.664062 -182.20898 L 29.664062 -186 L 37.824219 -190.85352 L 42.919922 -190.33594 L 65.365234 -201.68164 L 33.240234 -201.68164 L 28.119141 -196.28906 L 18.955078 -198.98242 L -2.484375 -191.42969 L -37.695312 -187.10156 L -47.888672 -180.61523 L -78.003906 -176.29492 L -96.871094 -173.06836 L -109.12109 -168.20703 L -149.42969 -157.39648 L -165.25977 -152.00391 L -187.18945 -147.14453 L -209.63477 -140.6582 L -218.30859 -133.63672 L -225.46289 -122.82617 L -190.25195 -85.564453 L -178 -72.621094 L -158.10352 -63.972656 L -155.04297 -67.199219 L -170.35742 -85.029297 L -169.84375 -97.441406 L -165.75391 -99.601562 L -160.14258 -113.10938 L -132.08594 -130.93945 L -127.50586 -129.31055 L -123.41406 -132.00586 L -97.90625 -144.44531 L -84.626953 -148.76758 L -73.917969 -153.62695 L -50.443359 -163.3418 L -46.375 -166.56836 L -30.544922 -164.4082 L -17.804688 -144.44336 L -15.552734 -145.86328 L 18.138672 -69.919922 L 21.472656 -69.919922 L 34.753906 -46.699219 L 34.753906 -41.837891 L 42.398438 -29.427734 L 43.402344 -21.845703 L 50.556641 -9.4355469 L 59.746094 20.806641 L 63.320312 21.324219 L 69.421875 42.947266 L 75.033203 47.806641 L 80.154297 59.150391 L 92.896484 97.478516 L 99.021484 108.82227 L 109.72852 137.99805 L 114.33398 149.875 L 137.80859 210.35938 L 150.54883 241.13281 L 155.64648 262.19336 L 172.50391 302.14844 L 171.98828 304.87695 L 177.59766 315.125 L 176.56836 319.44727 L 204.13477 389.64648 L 207.6875 404.21875 L 211.26562 406.37891 L 214.83984 426.9043 L 219.9375 432.85742 L 219.41992 436.08594 L 225.03125 452.28711 L 264.33398 456.60742 L 267.39648 452.28711 L 284.74414 456.60742 L 280.6543 451.1875 L 290.84766 453.34766 L 284.7207 434.45117 L 284.22656 427.96484 L 281.16406 384.24609 L 279.10547 379.39258 L 282.67969 374.50391 L 282.67969 356.70312 L 285.22461 351.8418 L 286.77148 317.27539 L 292.38281 295.6543 L 297.47852 278.91797 L 324.53125 344.25977 L 324.53125 349.68164 L 337.27148 358.30078 L 342.88281 352.91406 L 305.12305 240.5957 L 308.18555 212.51758 L 311.24805 210.35547 L 318.89258 176.32422 L 321.46875 167.14062 L 335.23828 123.39258 L 333.69336 120.16602 L 337.27148 115.8457 L 362.7793 30.511719 L 367.38281 15.404297 L 378.60547 -20.226562 L 395.43945 -61.279297 L 395.43945 -66.134766 L 397.98438 -75.316406 L 405.11523 -87.726562 L 417.88086 -119.06445 L 417.88086 -121.75781 L 422.46094 -127.15234 L 429.10156 -148.21094 L 431.64648 -154.16406 L 454.60547 -192.52148 L 470.94922 -201.67383 L 479.62305 -193.05469 L 479.11133 -188.73242 L 485.23633 -177.92188 L 492.88086 -174.13281 L 513.29297 -180.08594 L 523.48633 -191.96289 L 535.22266 -220.57617 L 525.0293 -238.40625 L 511.75 -251.37891 L 499.54297 -253.00586 z M -17.498047 -137.42969 L -16.789062 -121.75977 L -20.880859 -31.035156 L -33.621094 68.871094 L -33.621094 75.890625 L -38.71875 104.50195 L -40.777344 115.3125 L -45.357422 136.90625 L -53.517578 168.77734 L -57.607422 190.93359 L -64.738281 212.52539 L -69.34375 236.81445 L -88.210938 283.81836 L -94.849609 302.7168 L -101.98047 319.45117 L -114.23242 347.53125 L -126.48438 372.91602 L -149.95898 404.78711 L -162.21094 422.05469 L -172.91797 429.60547 L -174.95117 435.56055 L -197.91016 457.71484 L -212.70898 466.89844 L -228.02539 477.14648 L -242.82422 484.16602 L -258.11328 486.85938 L -278.52539 481.4668 L -287.71484 472.81836 L -290.25977 461.47461 L -287.19727 427.4707 L -282.10156 421.51758 L -265.78125 388.04688 L -257.10742 385.88672 L -250.98242 383.72461 L -245.37109 408.01172 L -235.66797 413.39844 L -217.80469 409.10742 L -214.74219 404.78516 L -194.33203 382.09766 L -198.93555 372.91602 L -198.93555 366.96094 L -209.64453 353.48438 L -231.57422 339.41406 L -235.66602 344.30273 L -239.75586 344.30273 L -254.04102 351.32227 L -264.75 361.57227 L -277.00195 369.6875 L -285.16016 384.25977 L -290.25781 387.48828 L -303.02344 408.54688 L -305.05664 420.98633 L -308.11719 423.14844 L -311.69727 451.22656 L -308.63477 456.08594 L -308.63477 470.12695 L -294.34961 493.34961 L -274.45312 506.85547 L -265.26367 506.33789 L -246.88672 510.125 L -225.96094 502.57227 L -222.4082 503.08984 L -206.06445 491.21289 L -196.87695 491.72852 L -191.7793 483.64258 L -181.58594 473.36523 L -178.01172 470.13867 L -173.43164 471.76758 L -153.53516 450.70703 L -148.41406 438.26758 L -143.83398 437.20312 L -136.1875 430.71484 L -130.0625 418.30664 L -126.48828 416.67773 L -117.81445 401.57031 L -110.16797 394.55078 L -93.310547 358.35547 L -85.666016 345.94531 L -87.210938 341.62305 L -78.537109 324.32617 L -74.958984 324.32617 L -64.251953 297.875 L -64.742188 293.02148 L -56.091797 281.14453 L -54.546875 268.70312 L -51.484375 265.47656 L -43.324219 238.46289 L -39.255859 233.07617 L -39.746094 226.58984 L -30.068359 195.81445 L -28.009766 186.63281 L -19.849609 157.48633 L -16.787109 148.30469 L -11.691406 128.3125 L -9.1464844 104.02344 L -3.5351562 93.746094 L -7.1132812 87.822266 L -3.5351562 85.660156 L -2.0195312 68.894531 L 3.5917969 39.75 L 7.1660156 2.4882812 L 9.7148438 -13.181641 L 12.259766 -17.507812 L 14.318359 -56.931641 L 15.492188 -62.943359 L -17.498047 -137.42969 z "
       xlink:href="#path837"
       id="path854"
       inkscape:href="#path837"
       d="m 201.42773,33.697266 a 1.4702376,1.4702376 0 0 0 -0.32617,0.03516 l -5.25781,1.167969 a 1.4702376,1.4702376 0 0 0 -0.65625,0.333984 l -5.52344,4.888672 a 1.4702376,1.4702376 0 0 0 -0.18359,0.197265 l -4.26563,5.458985 a 1.4702376,1.4702376 0 0 0 -0.16601,0.265625 l -1.85352,3.835937 -2.98437,5.125 a 1.4702376,1.4702376 0 0 0 -0.0586,0.115235 l -7.14843,15.246094 a 1.4702376,1.4702376 0 0 0 -0.0625,0.154296 l -3.00586,8.91211 a 1.4702376,1.4702376 0 0 0 -0.002,0.002 l -3.13671,9.345703 -2.29102,6.775391 -0.31055,0.355468 a 1.4702376,1.4702376 0 0 0 -0.32812,0.660157 l -1.12305,5.294924 -2.36133,9.68554 -3.98828,11.28907 a 1.4702376,1.4702376 0 0 0 -0.0625,0.73828 l 0.18945,1.10937 -1.1582,3.99024 a 1.4702376,1.4702376 0 0 0 -0.0156,0.0605 l -0.86719,3.53907 -3.24414,10.16601 a 1.4702376,1.4702376 0 0 0 -0.0469,0.19336 l -0.98828,5.65039 -1.30273,4.04688 -0.73633,-2.77735 a 1.4702376,1.4702376 0 0 0 -0.0723,-0.20507 l -5.36523,-12.45118 -3.36523,-10.14453 a 1.4702376,1.4702376 0 0 0 -0.0547,-0.14258 l -1.87305,-4.14843 -2.75,-6.73438 a 1.4702376,1.4702376 0 0 0 -0.0137,-0.0312 l -0.86719,-1.98437 -7.87109,-20.355472 -2.75586,-8.3125 a 1.4702376,1.4702376 0 0 0 -0.125,-0.277344 l -1.94727,-3.34375 -9.86523,-25.496093 a 1.4702376,1.4702376 0 0 0 -0.0137,-0.03125 l -4.89063,-11.791016 a 1.4702376,1.4702376 0 0 0 -0.78515,-0.791016 l -2.38477,-1.009765 a 1.4702376,1.4702376 0 0 0 -0.94727,-0.06836 l -4.890621,1.292969 a 1.4702376,1.4702376 0 0 0 -0.613281,2.511719 l 2.203124,1.996094 2.597658,4.738281 16.01953,39.609375 a 1.4702376,1.4702376 0 0 0 0.002,0.0039 l 5.26368,12.925782 5.26171,13.93164 5.64453,15.0957 a 1.4702376,1.4702376 0 0 0 0.0137,0.0352 l 8.1289,20.08594 1.23047,3.80664 2.14063,7.5039 -0.52735,2.0586 a 1.4702376,1.4702376 0 0 0 -0.0215,0.10156 l -1,5.4668 a 1.4702376,1.4702376 0 0 0 -0.006,0.0293 l -1.63086,10.06446 a 1.4702376,1.4702376 0 0 0 0.0195,0.57031 l 0.22461,0.95312 -0.89453,1.3379 a 1.4702376,1.4702376 0 0 0 -0.22461,0.55468 l -0.22461,1.22461 -0.19726,-0.0449 -1.49024,-4.65039 -0.60742,-2.08594 -0.9961,-4.55664 a 1.4702376,1.4702376 0 0 0 -0.0645,-0.2168 l -1.49219,-3.84375 -2.74414,-8.44726 a 1.4702376,1.4702376 0 0 0 -0.59179,-0.77344 l -0.36914,-0.24219 -1.38282,-6.73632 a 1.4702376,1.4702376 0 0 0 -0.11914,-0.35157 l -1.10156,-2.24804 -2.99219,-7.42579 a 1.4702376,1.4702376 0 0 0 -0.16992,-0.30859 l -2.10351,-2.92773 v -5.13477 a 1.4702376,1.4702376 0 0 0 -0.082,-0.48437 l -2.25781,-6.46875 a 1.4702376,1.4702376 0 0 0 -0.0508,-0.12696 l -2.5918,-5.67383 0.20313,-1.90234 A 1.4702376,1.4702376 0 0 0 119.625,122.76562 L 116.79883,116 l -0.85156,-4.31055 a 1.4702376,1.4702376 0 0 0 -0.40821,-0.76172 l -1.4414,-1.42187 -1.03516,-4.74609 a 1.4702376,1.4702376 0 0 0 -0.043,-0.16016 L 108.87695,92.375 a 1.4702376,1.4702376 0 0 0 -0.0684,-0.166016 l -3.1582,-6.546875 -0.21484,-1.634765 a 1.4702376,1.4702376 0 0 0 -0.12696,-0.435547 L 97.90625,67.919922 a 1.4702376,1.4702376 0 0 0 -0.367188,-0.484375 l -0.291015,-0.251953 -3.509766,-6.658203 a 1.4702376,1.4702376 0 0 0 -0.529297,-0.566407 l -1.625,-1.001953 -3.179687,-2.013672 -1.013672,-3.134765 0.886719,-0.572266 0.736328,0.08008 a 1.4702376,1.4702376 0 0 0 0.867187,-0.171875 l 5.517579,-3.021484 A 1.4702376,1.4702376 0 0 0 94.691406,47.363281 H 86.792969 A 1.4702376,1.4702376 0 0 0 85.6875,47.865234 l -0.623047,0.712891 -1.333984,-0.425781 a 1.4702376,1.4702376 0 0 0 -0.970703,0.02734 l -5.111328,1.949218 -8.486329,1.13086 a 1.4702376,1.4702376 0 0 0 -0.640625,0.246093 l -2.228515,1.53711 -7.072266,1.097656 a 1.4702376,1.4702376 0 0 0 -0.04102,0.0078 l -4.636719,0.859374 a 1.4702376,1.4702376 0 0 0 -0.3125,0.0957 l -2.929688,1.257812 -9.820312,2.853516 a 1.4702376,1.4702376 0 0 0 -0.09766,0.0332 l -3.8125,1.404297 -5.30664,1.27539 a 1.4702376,1.4702376 0 0 0 -0.0957,0.02734 l -5.517578,1.726563 a 1.4702376,1.4702376 0 0 0 -0.529297,0.296875 l -2.13086,1.86914 a 1.4702376,1.4702376 0 0 0 -0.285156,0.337891 l -1.759766,2.878906 a 1.4702376,1.4702376 0 0 0 0.146485,1.734375 l 8.65625,9.921875 3.011719,3.447266 a 1.4702376,1.4702376 0 0 0 0.480468,0.363281 l 4.890625,2.302734 a 1.4702376,1.4702376 0 0 0 1.732422,-0.361328 l 0.751953,-0.859375 a 1.4702376,1.4702376 0 0 0 0.04687,-1.882812 l -3.425781,-4.322266 0.07227,-1.945312 0.296875,-0.167969 A 1.4702376,1.4702376 0 0 0 39.25,76.542969 l 1.214844,-3.171875 5.882812,-4.048828 0.404297,0.154296 a 1.4702376,1.4702376 0 0 0 1.380859,-0.173828 l 0.925782,-0.660156 6.085937,-3.216797 3.164063,-1.113281 a 1.4702376,1.4702376 0 0 0 0.160156,-0.06836 l 2.607422,-1.283203 5.748047,-2.576172 a 1.4702376,1.4702376 0 0 0 0.357422,-0.226563 l 0.490234,-0.421875 2.53125,0.375 2.777344,4.710938 a 1.4702376,1.4702376 0 0 0 0.169922,0.234375 1.4702376,1.4702376 0 0 0 -0.298829,0.949218 l 0.173829,4.111329 -1.001953,24.041015 -3.126954,26.548827 a 1.4702376,1.4702376 0 0 0 -0.0098,0.17188 v 1.75 l -1.230469,7.49218 -0.501953,2.85547 -1.119141,5.70899 -2,8.45898 a 1.4702376,1.4702376 0 0 0 -0.01758,0.0898 l -0.990234,5.80664 -1.72461,5.6621 a 1.4702376,1.4702376 0 0 0 -0.04102,0.17383 l -1.111328,6.33789 -4.589844,12.39063 a 1.4702376,1.4702376 0 0 0 -0.01953,0.0566 l -1.619141,4.99023 -1.734375,4.40821 -3,7.44726 -2.947266,6.61524 -5.695312,8.3789 a 1.4702376,1.4702376 0 0 0 -0.01563,0.0215 l -2.873047,4.38672 -2.433594,1.85937 a 1.4702376,1.4702376 0 0 0 -0.509765,0.72656 l -0.394532,1.25782 -5.298828,5.53711 -3.505859,2.35546 a 1.4702376,1.4702376 0 0 0 -0.04297,0.0312 l -3.671875,2.66211 -3.351562,1.72071 -3.205078,0.61328 -4.308594,-1.23438 -1.6855471,-1.71679 -0.4941407,-2.39063 0.6972657,-8.40039 0.9785161,-1.23633 a 1.4702376,1.4702376 0 0 0 0.1875,-0.30859 l 3.726562,-8.27734 1.458984,-0.39454 a 1.4702376,1.4702376 0 0 0 0.04297,-0.0137 l 1.021485,4.79297 a 1.4702376,1.4702376 0 0 0 0.679687,0.95313 l 2.386719,1.43359 a 1.4702376,1.4702376 0 0 0 1.128906,0.16211 l 4.390625,-1.14258 A 1.4702376,1.4702376 0 0 0 26.3125,212.2832 l 0.707031,-1.08008 4.962891,-5.97851 a 1.4702376,1.4702376 0 0 0 0.203125,-1.55664 l -0.994141,-2.15039 v -1.26172 a 1.4702376,1.4702376 0 0 0 -0.285156,-0.86914 l -2.632812,-3.58984 a 1.4702376,1.4702376 0 0 0 -0.345704,-0.3379 l -5.390625,-3.74609 a 1.4702376,1.4702376 0 0 0 -2.003906,0.30859 l -0.564453,0.73047 h -0.283203 a 1.4702376,1.4702376 0 0 0 -0.691406,0.17383 l -3.511719,1.86914 a 1.4702376,1.4702376 0 0 0 -0.367188,0.27539 l -2.539062,2.63281 -2.904297,2.08204 a 1.4702376,1.4702376 0 0 0 -0.4492188,0.52148 l -1.8339843,3.55078 -0.9492188,0.65039 a 1.4702376,1.4702376 0 0 0 -0.4511719,0.49414 l -3.1386718,5.60743 a 1.4702376,1.4702376 0 0 0 -0.1699219,0.5 l -0.4121094,2.72656 -0.2792969,0.21289 a 1.4702376,1.4702376 0 0 0 -0.5683593,0.99609 l -0.87890628,7.47656 a 1.4702376,1.4702376 0 0 0 0.18945313,0.91016 l 0.55273435,0.95313 v 3.34179 a 1.4702376,1.4702376 0 0 0 0.1914063,0.72656 l 3.5117187,6.1836 a 1.4702376,1.4702376 0 0 0 0.4082031,0.45703 l 4.8906248,3.59766 a 1.4702376,1.4702376 0 0 0 0.960938,0.2832 l 2.052734,-0.125 4.314453,0.96289 a 1.4702376,1.4702376 0 0 0 0.855469,-0.0664 l 4.773438,-1.86523 0.480468,0.0762 a 1.4702376,1.4702376 0 0 0 1.134766,-0.29687 l 3.580078,-2.81641 1.701172,0.10156 a 1.4702376,1.4702376 0 0 0 1.359375,-0.72851 l 1.171875,-2.01368 2.371094,-2.58984 0.175781,-0.17187 0.246094,0.0937 a 1.4702376,1.4702376 0 0 0 1.634765,-0.4043 l 4.890625,-5.60742 a 1.4702376,1.4702376 0 0 0 0.267578,-0.44532 l 0.986329,-2.5957 0.384765,-0.0976 a 1.4702376,1.4702376 0 0 0 0.632813,-0.34375 l 1.878906,-1.72657 a 1.4702376,1.4702376 0 0 0 0.34375,-0.47265 l 1.289062,-2.82813 0.408204,-0.20117 a 1.4702376,1.4702376 0 0 0 0.648437,-0.62891 l 2.029297,-3.82812 1.720703,-1.71094 a 1.4702376,1.4702376 0 0 0 0.3125,-0.46289 l 4.113281,-9.56055 1.837891,-3.23632 a 1.4702376,1.4702376 0 0 0 0.119141,-1.18946 l -0.199219,-0.59765 1.49414,-3.22461 h -0.06055 a 1.4702376,1.4702376 0 0 0 1.376954,-0.95508 l 2.632812,-7.04297 a 1.4702376,1.4702376 0 0 0 0.08594,-0.65234 l -0.07227,-0.77149 1.835938,-2.72656 a 1.4702376,1.4702376 0 0 0 0.240234,-0.65234 l 0.328125,-2.85743 0.449219,-0.51367 a 1.4702376,1.4702376 0 0 0 0.310546,-0.57422 l 1.939454,-6.95312 0.857422,-1.23047 A 1.4702376,1.4702376 0 0 0 70.439453,164.5 l -0.103515,-1.46484 2.30664,-7.94336 a 1.4702376,1.4702376 0 0 0 0.02734,-0.11133 l 0.5,-2.41016 1.988281,-7.69531 0.742188,-2.41211 a 1.4702376,1.4702376 0 0 0 0.02734,-0.0957 l 1.251954,-5.32422 a 1.4702376,1.4702376 0 0 0 0.03125,-0.19336 l 0.601562,-6.19531 1.253906,-2.49024 a 1.4702376,1.4702376 0 0 0 -0.0293,-1.3789 l -0.210937,-0.37891 -0.267578,0.17383 a 1.4702376,1.4702376 0 0 0 0.660156,-1.10742 l 0.367188,-4.39844 1.367187,-7.69141 a 1.4702376,1.4702376 0 0 0 0.01758,-0.1289 l 0.875,-9.87891 0.582031,-3.871094 0.501954,-0.925781 a 1.4702376,1.4702376 0 0 0 0.175781,-0.630859 l 0.5,-10.402344 0.140625,-0.769531 1.949218,3.693359 v 0.929688 a 1.4702376,1.4702376 0 0 0 0.19336,0.726562 l 1.732422,3.048828 0.210937,1.726563 a 1.4702376,1.4702376 0 0 0 0.16211,0.513671 l 1.683593,3.164058 2.214844,7.89844 a 1.4702376,1.4702376 0 0 0 1.189453,1.05664 l -0.07422,-0.0117 1.257813,4.82422 a 1.4702376,1.4702376 0 0 0 0.416016,0.70118 l 1.148437,1.07812 1.111328,2.66602 3.111324,10.13671 a 1.4702376,1.4702376 0 0 0 0.0898,0.22461 l 1.46289,2.93164 2.59765,7.67188 a 1.4702376,1.4702376 0 0 0 0.008,0.0254 l 1.13281,3.16406 5.76953,16.10547 a 1.4702376,1.4702376 0 0 0 0.0117,0.0293 l 3.09375,8.0957 1.22852,5.50195 a 1.4702376,1.4702376 0 0 0 0.0664,0.21289 l 3.99414,10.25586 -0.0547,0.32227 a 1.4702376,1.4702376 0 0 0 0.13477,0.91602 l 1.14258,2.26367 -0.13867,0.64062 a 1.4702376,1.4702376 0 0 0 0.0527,0.81446 l 6.74414,18.60742 0.85352,3.78711 a 1.4702376,1.4702376 0 0 0 0.6289,0.9082 l 0.33789,0.2207 0.7754,4.82422 a 1.4702376,1.4702376 0 0 0 0.29687,0.67578 l 0.85937,1.08789 -0.0352,0.23243 a 1.4702376,1.4702376 0 0 0 0.0547,0.66211 l 1.3789,4.31445 a 1.4702376,1.4702376 0 0 0 1.22656,1.01172 l 9.66211,1.15039 a 1.4702376,1.4702376 0 0 0 1.4043,-0.6543 L 145,224.67383 l 3.23633,0.87305 a 1.4702376,1.4702376 0 0 0 1.72656,-0.82618 1.4702376,1.4702376 0 0 0 1.56445,-1.88281 l -1.45898,-4.87695 -0.11133,-1.56055 -0.75195,-11.63867 a 1.4702376,1.4702376 0 0 0 -0.0977,-0.44141 l -0.22461,-0.57226 0.44727,-0.66211 a 1.4702376,1.4702376 0 0 0 0.25195,-0.82227 v -4.40429 l 0.47852,-0.98829 a 1.4702376,1.4702376 0 0 0 0.14453,-0.58007 l 0.375,-9.0625 1.33984,-5.5918 0.041,-0.14844 4.96679,12.99414 v 1.17188 a 1.4702376,1.4702376 0 0 0 0.60157,1.18554 l 3.13281,2.29493 a 1.4702376,1.4702376 0 0 0 1.92773,-0.16602 l 1.37891,-1.43359 a 1.4702376,1.4702376 0 0 0 0.3457,-1.45508 l -9.19336,-29.625 0.65821,-6.54492 0.24609,-0.1875 a 1.4702376,1.4702376 0 0 0 0.54688,-0.86914 l 1.87109,-9.02735 0.62109,-2.38867 3.37891,-11.63086 a 1.4702376,1.4702376 0 0 0 -0.0684,-1.00586 l -0.0273,-0.0625 0.35156,-0.45703 a 1.4702376,1.4702376 0 0 0 0.25,-0.50391 l 6.26758,-22.71875 1.13086,-4.01367 2.73828,-9.425779 4.11914,-10.876953 a 1.4702376,1.4702376 0 0 0 0.0957,-0.521485 v -1.107422 l 0.53516,-2.095703 1.66992,-3.148437 a 1.4702376,1.4702376 0 0 0 0.0781,-0.171875 l 3.13868,-8.345704 a 1.4702376,1.4702376 0 0 0 0.0937,-0.517578 V 70.625 l 0.8125,-1.035156 a 1.4702376,1.4702376 0 0 0 0.25586,-0.498047 l 1.61132,-5.542969 0.56641,-1.43164 5.4082,-9.791016 2.65821,-1.611328 0.86132,0.925781 -0.0527,0.484375 a 1.4702376,1.4702376 0 0 0 0.1582,0.839844 l 1.50586,2.876953 a 1.4702376,1.4702376 0 0 0 0.60742,0.613281 l 1.87891,1.009766 a 1.4702376,1.4702376 0 0 0 1.13867,0.107422 l 5.01758,-1.583985 a 1.4702376,1.4702376 0 0 0 0.70898,-0.490234 l 2.50586,-3.164063 a 1.4702376,1.4702376 0 0 0 0.22266,-0.390625 l 2.88477,-7.61914 a 1.4702376,1.4702376 0 0 0 -0.0742,-1.207031 l -2.50586,-4.748047 a 1.4702376,1.4702376 0 0 0 -0.23242,-0.324219 l -3.26563,-3.453125 a 1.4702376,1.4702376 0 0 0 -0.85742,-0.445313 l -3,-0.433593 a 1.4702376,1.4702376 0 0 0 -0.20313,-0.01563 z"
       transform="translate(-9.0473014,16.867824)" />
    <path
       id="path837"
       style="font-style:normal;font-variant:normal;font-weight:normal;font-stretch:normal;font-size:20.6215px;line-height:1.25;font-family:'Party LET';-inkscape-font-specification:'Party LET, Normal';font-variant-ligatures:normal;font-variant-caps:normal;font-variant-numeric:normal;font-variant-east-asian:normal;fill:#a06a55;fill-opacity:1;stroke-width:4.69189;stroke-miterlimit:4;stroke-dasharray:none"
       d="m 499.54312,-253.00527 -21.39144,4.38399 -22.4695,18.36376 -17.34803,20.4967 -7.64532,14.60275 -12.25116,19.43017 -29.08541,57.25505 -12.227,33.46988 -12.76634,35.099073 -9.70308,26.480106 -2.03247,2.161483 -4.58042,19.9636693 -9.70272,36.7282687 -16.31955,42.652226 1.00305,5.42145 -5.09641,16.201901 -3.57876,13.476883 -13.25638,38.35675 -4.09117,21.59324 -8.67379,24.85087 -7.64576,-7.55361 -3.57428,-12.44017 -21.93029,-46.97677 -13.77065,-38.327796 -7.66981,-15.668074 -11.22224,-25.383911 -3.57864,-7.552815 -32.12401,-76.685268 -11.24677,-31.338137 -8.16,-12.943021 -40.30716,-96.144768 -19.89693,-44.28153 -9.702755,-3.79417 -19.896977,4.85987 9.703211,8.1156 11.22269,18.89751 65.300991,149.045713 21.43968,48.6055959 21.44046,52.3963421 22.95962,56.691929 33.15249,75.61873 5.09686,14.57346 9.18885,29.70774 -2.54923,9.18284 -4.06928,20.52561 -6.64007,37.79469 1.51554,5.92362 -5.09686,7.01989 -2.03242,10.27816 -10.21781,-2.16148 -7.13026,-20.52637 -2.54487,-8.08664 -4.09117,-17.29809 -6.12579,-14.5726 -11.22269,-31.8708 -3.57428,-2.1614 -6.12579,-27.54626 -4.58042,-8.61931 -12.25166,-28.08001 -9.67863,-12.43968 v -21.05948 l -9.18852,-24.2881 -11.2222,-22.688298 1.0074,-8.64901 -11.73688,-25.917062 -3.57429,-16.735277 -7.13059,-6.486776 -4.58046,-19.4301734 -16.85792,-45.9103616 -13.25641,-25.383949 -1.00306,-7.020227 -30.114455,-58.853716 -2.032464,-1.62882 -14.799944,-25.9174 -6.640066,-3.78643 -14.799578,-8.64864 -5.096862,-14.57308 v -3.79034 l 8.159512,-4.85412 5.096862,0.51734 22.444445,-11.34436 H 33.240698 l -5.121026,5.39261 -9.163906,-2.69418 -21.440498,7.55326 -35.210744,4.32684 -10.193319,6.48677 -30.114329,4.32098 -18.867109,3.22684 -12.251577,4.85984 -40.30809,10.81132 -15.82895,5.39249 -21.93066,4.85984 -22.44448,6.48685 -8.67423,7.02053 -7.15472,10.81011 35.21074,37.261761 12.25161,12.943397 19.89645,8.64901 3.06184,-3.226733 -15.31476,-17.830758 0.51253,-12.410734 4.09117,-2.161521 5.61155,-13.506552 28.05558,-17.8311 4.58047,1.62882 4.09117,-2.69414 25.508029,-12.44018 13.280497,-4.32135 10.708005,-4.85957 23.473816,-9.71584 4.06928,-3.22673 15.829397,2.16141 12.741323,19.96362 2.251445,-1.42036 33.692112,75.943763 h 3.333376 l 13.280946,23.221715 v 4.859909 l 7.644826,12.410772 1.003173,7.582558 7.155118,12.4104033 9.188924,30.2418677 3.574284,0.517303 6.101745,21.622563 5.611101,4.859909 5.120945,11.344357 12.741819,38.32697 6.125746,11.34503 10.708123,29.17512 4.60403,11.87736 23.4743,60.48332 12.74169,30.77415 5.09605,21.05948 16.85877,39.95662 -0.51697,2.72885 5.6111,10.24778 -1.02929,4.32101 27.56629,70.19886 3.5524,14.57233 3.57863,2.16149 3.57429,20.52554 5.09686,5.9534 -0.51697,3.22681 5.61147,16.20182 39.30285,4.32146 3.06175,-4.32146 17.34803,4.32146 -4.09116,-5.42145 10.19335,2.16149 -6.12533,-18.89759 -0.49512,-6.48678 -3.06176,-43.71837 -2.0587,-4.85402 3.57428,-4.88845 v -17.80097 l 2.54488,-4.85958 1.54629,-34.56674 5.6111,-21.62253 5.09642,-16.73494 27.05168,65.34173 v 5.42145 l 12.74169,8.61931 5.6111,-5.38713 -37.75957,-112.31733 3.0618,-28.07926 3.06175,-2.16152 7.64491,-34.03221 2.57563,-9.18284 13.77065,-43.74804 -1.54621,-3.22681 3.57867,-4.32101 25.50755,-85.333521 4.60451,-15.106081 11.22224,-35.632457 16.83387,-41.052811 v -4.854125 l 2.54487,-9.182011 7.13067,-12.410396 12.76577,-31.337758 v -2.69407 l 4.58047,-5.39295 6.64047,-21.05937 2.545,-5.95378 22.95913,-38.35708 16.34363,-9.15235 8.67424,8.61931 -0.51245,4.32139 6.12583,10.81049 7.64495,3.79034 20.41149,-5.95329 10.1934,-11.87736 11.73689,-28.61229 -10.19336,-17.8311 -13.28091,-12.97318 z m -517.041652,115.57584 0.709626,15.66879 -4.091167,90.724586 -12.741729,99.906494 v 7.01989 l -5.096903,28.61181 -2.058703,10.81132 -4.580428,21.59323 -8.159145,31.87069 -4.091167,22.15567 -7.130628,21.59249 -4.604063,24.28809 -18.867557,47.00538 -6.640066,18.89796 -7.130628,16.73449 -12.25157,28.08009 -12.25207,25.38391 -23.47381,31.87072 -12.25162,17.26832 -10.70799,7.55172 -2.03243,5.95374 -22.95916,22.15556 -14.80004,9.18213 -15.31471,10.2485 -14.7996,7.01981 -15.28975,2.69415 -20.41159,-5.39295 -9.18848,-8.64972 -2.54494,-11.34361 3.06181,-34.00325 5.096,-5.9534 16.31955,-33.46977 8.6738,-2.16148 6.12624,-2.16152 5.61067,24.28775 9.7036,5.38717 17.86273,-4.29251 3.0618,-4.32101 20.41072,-22.68868 -4.6041,-9.18201 v -5.95423 l -10.70756,-13.47677 -21.93067,-14.06937 -4.09117,4.88845 h -4.09116 l -14.28536,7.01978 -10.70799,10.24887 -12.25117,8.11526 -8.15955,14.57342 -5.09732,3.22684 -12.76584,21.05937 -2.03243,12.44014 -3.06182,2.16152 -3.57867,28.07881 3.0618,4.85946 v 14.04041 l 14.28536,23.22172 19.89648,13.50655 9.18892,-0.51734 18.3774,3.78644 20.92583,-7.55282 3.55239,0.51734 16.34364,-11.8769 9.18848,0.5173 5.09688,-8.08619 10.19332,-10.27795 3.57429,-3.22669 4.58044,1.62882 19.89649,-21.05948 5.12139,-12.44014 4.58043,-1.06525 7.64531,-6.48674 6.12583,-12.41002 3.57428,-1.62886 8.67424,-15.10608 7.64532,-7.01944 16.85787,-36.1956 7.644867,-12.41119 -1.546214,-4.32101 8.673791,-17.29772 h 3.578678 l 10.707556,-26.45044 -0.490562,-4.85401 8.649708,-11.87781 1.546254,-12.44089 3.061795,-3.22673 8.159553,-27.01285 4.069281,-5.38671 -0.490644,-6.4864 9.678632,-30.77487 2.058744,-9.18284 8.159552,-29.14578 3.061795,-9.1813 5.096008,-19.99333 2.5449129,-24.28854 5.6115484,-10.277494 -3.5786776,-5.923958 3.5786776,-2.16152 1.5155815,-16.765433 5.6111416,-29.144846 3.5742841,-37.2617575 2.5493059,-15.6692455 2.5449536,-4.326795 2.058702,-39.423165 1.173909,-6.013186 z" />
  </g>
</svg>
