<?xml version="1.0" encoding="UTF-8" standalone="no"?>
<svg
   xmlns:osb="http://www.openswatchbook.org/uri/2009/osb"
   xmlns:dc="http://purl.org/dc/elements/1.1/"
   xmlns:cc="http://creativecommons.org/ns#"
   xmlns:rdf="http://www.w3.org/1999/02/22-rdf-syntax-ns#"
   xmlns:svg="http://www.w3.org/2000/svg"
   xmlns="http://www.w3.org/2000/svg"
   xmlns:xlink="http://www.w3.org/1999/xlink"
   xmlns:sodipodi="http://sodipodi.sourceforge.net/DTD/sodipodi-0.dtd"
   xmlns:inkscape="http://www.inkscape.org/namespaces/inkscape"
   width="793.70081"
   height="1122.5197"
   viewBox="0 0 210 297"
   version="1.1"
   id="svg8"
   inkscape:version="1.0.2 (e86c8708, 2021-01-15)"
   sodipodi:docname="n.svg">
  <defs
     id="defs2">
    <linearGradient
       id="linearGradient860"
       osb:paint="solid">
      <stop
         style="stop-color:#000000;stop-opacity:1;"
         offset="0"
         id="stop858" />
    </linearGradient>
  </defs>
  <sodipodi:namedview
     id="base"
     pagecolor="#ffffff"
     bordercolor="#666666"
     borderopacity="1.0"
     inkscape:pageopacity="0.0"
     inkscape:pageshadow="2"
     inkscape:zoom="0.18359777"
     inkscape:cx="461.94094"
     inkscape:cy="901.07581"
     inkscape:document-units="px"
     inkscape:current-layer="layer1"
     inkscape:document-rotation="0"
     showgrid="false"
     units="px"
     inkscape:window-width="826"
     inkscape:window-height="793"
     inkscape:window-x="69"
     inkscape:window-y="25"
     inkscape:window-maximized="0" />
  <metadata
     id="metadata5">
    <rdf:RDF>
      <cc:Work
         rdf:about="">
        <dc:format>image/svg+xml</dc:format>
        <dc:type
           rdf:resource="http://purl.org/dc/dcmitype/StillImage" />
        <dc:title />
      </cc:Work>
    </rdf:RDF>
  </metadata>
  <g
     inkscape:label="Layer 1"
     inkscape:groupmode="layer"
     id="layer1">
    <path
       style="font-style:normal;font-variant:normal;font-weight:normal;font-stretch:normal;font-size:20.6215px;line-height:1.25;font-family:'Party LET';-inkscape-font-specification:'Party LET, Normal';font-variant-ligatures:normal;font-variant-caps:normal;font-variant-numeric:normal;font-variant-east-asian:normal;fill:#f2dfd7;fill-opacity:1;stroke-width:0.0899999;stroke-miterlimit:4;stroke-dasharray:none"
       sodipodi:type="inkscape:offset"
       inkscape:radius="1.4700906"
       inkscape:original="M 198.16797 34.873047 L 193.19141 36.300781 L 187.96484 42.277344 L 183.92773 48.947266 L 182.15039 53.701172 L 179.29883 60.025391 L 172.5332 78.660156 L 169.68945 89.552734 L 166.71875 100.97656 L 164.46094 109.5957 L 163.98828 110.29883 L 162.92383 116.79492 L 160.66602 128.75 L 156.86914 142.63086 L 157.10352 144.39648 L 155.91797 149.66992 L 155.08398 154.05469 L 152 166.53906 L 151.04883 173.56641 L 149.03125 181.65625 L 147.25195 179.19727 L 146.42188 175.14844 L 141.32031 159.85938 L 138.11523 147.38477 L 136.33203 142.28516 L 133.7207 134.02344 L 132.88867 131.56445 L 125.41602 106.60547 L 122.79883 96.40625 L 120.90039 92.195312 L 111.52344 60.902344 L 106.89453 46.490234 L 104.63672 45.255859 L 100.00977 46.837891 L 102.26562 49.478516 L 104.87695 55.628906 L 120.06836 104.13867 L 125.05664 119.95703 L 130.04297 137.01172 L 135.38477 155.46289 L 143.09766 180.07422 L 144.2832 184.81641 L 146.41992 194.48633 L 145.82812 197.47461 L 144.88086 204.1543 L 143.33594 216.45703 L 143.68945 218.38477 L 142.50391 220.66797 L 142.03125 224.01367 L 139.6543 223.31055 L 137.99414 216.63086 L 137.40234 213.99805 L 136.45117 208.36719 L 135.02539 203.625 L 132.41406 193.25195 L 131.58398 192.54883 L 130.1582 183.58398 L 129.09375 180.77734 L 126.24219 171.63867 L 123.99023 167.58984 L 123.99023 160.73633 L 121.85352 152.83008 L 119.24219 145.44727 L 119.47656 142.63086 L 116.74609 134.19727 L 115.91602 128.75 L 114.25586 126.63867 L 113.19141 120.31445 L 109.26953 105.37305 L 106.18555 97.111328 L 105.95117 94.826172 L 98.945312 75.671875 L 98.472656 75.140625 L 95.029297 66.705078 L 93.486328 65.472656 L 90.042969 62.658203 L 88.857422 57.916016 L 88.857422 56.681641 L 90.755859 55.101562 L 91.941406 55.269531 L 97.162109 51.578125 L 89.689453 51.578125 L 88.498047 53.333984 L 86.365234 52.457031 L 81.378906 54.914062 L 73.1875 56.322266 L 70.814453 58.433594 L 63.810547 59.839844 L 59.419922 60.890625 L 56.570312 62.472656 L 47.193359 65.990234 L 43.511719 67.746094 L 38.408203 69.328125 L 33.1875 71.439453 L 31.169922 73.724609 L 29.505859 77.242188 L 37.697266 89.369141 L 40.546875 93.582031 L 45.175781 96.398438 L 45.886719 95.347656 L 42.324219 89.544922 L 42.443359 85.503906 L 43.396484 84.800781 L 44.701172 80.404297 L 51.228516 74.601562 L 52.292969 75.132812 L 53.246094 74.255859 L 59.179688 70.207031 L 62.269531 68.798828 L 64.759766 67.21875 L 70.220703 64.056641 L 71.167969 63.005859 L 74.849609 63.708984 L 77.814453 70.207031 L 78.337891 69.744141 L 86.175781 94.460938 L 86.951172 94.460938 L 90.041016 102.01953 L 90.041016 103.60156 L 91.820312 107.64062 L 92.052734 110.10938 L 93.716797 114.14844 L 95.855469 123.99023 L 96.6875 124.1582 L 98.105469 131.19531 L 99.412109 132.77734 L 100.60352 136.4707 L 103.56641 148.94336 L 104.99219 152.63672 L 107.48242 162.13281 L 108.55469 165.99805 L 114.01562 185.68359 L 116.97852 195.69922 L 118.16406 202.55273 L 122.08594 215.55859 L 121.9668 216.44531 L 123.27148 219.78125 L 123.0332 221.1875 L 129.44531 244.03516 L 130.27148 248.77734 L 131.10352 249.48242 L 131.93555 256.16211 L 133.12109 258.09961 L 133.00195 259.15039 L 134.30664 264.42383 L 143.44922 265.83008 L 144.16211 264.42383 L 148.19727 265.83008 L 147.24609 264.06445 L 149.61719 264.76758 L 148.19336 258.61719 L 148.07812 256.50586 L 147.36523 242.27734 L 146.88672 240.69727 L 147.7168 239.10742 L 147.7168 233.3125 L 148.31055 231.73242 L 148.66992 220.48047 L 149.97461 213.44336 L 151.16016 207.99805 L 157.45312 229.26367 L 157.45312 231.02734 L 160.41797 233.83398 L 161.72266 232.08008 L 152.93945 195.52539 L 153.65039 186.38672 L 154.36328 185.68164 L 156.14258 174.60547 L 156.74023 171.61719 L 159.94531 157.37891 L 159.58594 156.32812 L 160.41797 154.92188 L 166.35156 127.14844 L 167.42188 122.23242 L 170.0332 110.63477 L 173.94922 97.273438 L 173.94922 95.693359 L 174.54102 92.705078 L 176.20117 88.666016 L 179.16992 78.466797 L 179.16992 77.589844 L 180.23633 75.833984 L 181.78125 68.980469 L 182.37305 67.042969 L 187.71289 54.558594 L 191.51562 51.580078 L 193.5332 54.384766 L 193.41406 55.791016 L 194.83984 59.310547 L 196.61914 60.544922 L 201.36719 58.607422 L 203.73828 54.740234 L 206.46875 45.427734 L 204.09766 39.625 L 201.00781 35.402344 L 198.16797 34.873047 z M 77.884766 72.490234 L 78.050781 77.589844 L 77.097656 107.11719 L 74.134766 139.63281 L 74.134766 141.91797 L 72.949219 151.23047 L 72.470703 154.75 L 71.404297 161.77734 L 69.505859 172.15039 L 68.554688 179.36133 L 66.894531 186.38867 L 65.824219 194.29297 L 61.435547 209.5918 L 59.890625 215.74219 L 58.232422 221.18945 L 55.380859 230.32812 L 52.53125 238.58984 L 47.070312 248.96289 L 44.220703 254.58398 L 41.728516 257.04102 L 41.255859 258.97852 L 35.916016 266.18945 L 32.472656 269.17773 L 28.910156 272.51367 L 25.466797 274.79883 L 21.910156 275.67578 L 17.160156 273.91992 L 15.023438 271.10547 L 14.431641 267.41211 L 15.144531 256.3457 L 16.330078 254.4082 L 20.125 243.51562 L 22.144531 242.8125 L 23.568359 242.10742 L 24.873047 250.01367 L 27.130859 251.76562 L 31.287109 250.36914 L 32 248.96289 L 36.748047 241.57812 L 35.675781 238.58984 L 35.675781 236.65234 L 33.185547 232.26562 L 28.083984 227.6875 L 27.130859 229.27734 L 26.179688 229.27734 L 22.857422 231.5625 L 20.365234 234.89844 L 17.515625 237.53906 L 15.617188 242.2832 L 14.431641 243.33203 L 11.460938 250.1875 L 10.988281 254.23633 L 10.277344 254.93945 L 9.4433594 264.07812 L 10.15625 265.66016 L 10.15625 270.22852 L 13.480469 277.78711 L 18.109375 282.18359 L 20.246094 282.01562 L 24.521484 283.24805 L 29.388672 280.78906 L 30.216797 280.95703 L 34.017578 277.0918 L 36.15625 277.25977 L 37.341797 274.62891 L 39.712891 271.2832 L 40.544922 270.23242 L 41.609375 270.76367 L 46.238281 263.9082 L 47.429688 259.85938 L 48.496094 259.51367 L 50.273438 257.40234 L 51.699219 253.36328 L 52.53125 252.83398 L 54.548828 247.91602 L 56.326172 245.63281 L 60.248047 233.85156 L 62.027344 229.8125 L 61.667969 228.40625 L 63.685547 222.77539 L 64.517578 222.77539 L 67.009766 214.16797 L 66.894531 212.58789 L 68.90625 208.7207 L 69.267578 204.67188 L 69.978516 203.62305 L 71.876953 194.83008 L 72.824219 193.07812 L 72.708984 190.9668 L 74.960938 180.94922 L 75.439453 177.96094 L 77.337891 168.47461 L 78.050781 165.48633 L 79.236328 158.98047 L 79.828125 151.07422 L 81.132812 147.73047 L 80.300781 145.80078 L 81.132812 145.09766 L 81.486328 139.64062 L 82.791016 130.15625 L 83.623047 118.02734 L 84.216797 112.92773 L 84.808594 111.51953 L 85.287109 98.689453 L 85.560547 96.732422 L 77.884766 72.490234 z "
       xlink:href="#path837"
       id="path854"
       inkscape:href="#path837"
       d="m 173.02148,65.107422 a 1.4702376,1.4702376 0 0 0 -0.39257,0.06055 l -3.6211,1.072265 a 1.4702376,1.4702376 0 0 0 -0.70508,0.460938 l -3.80468,4.496094 a 1.4702376,1.4702376 0 0 0 -0.14649,0.207031 l -2.9375,5.017578 a 1.4702376,1.4702376 0 0 0 -0.11328,0.242187 l -1.2793,3.529297 -2.05468,4.712891 a 1.4702376,1.4702376 0 0 0 -0.0391,0.101562 l -4.92382,14.015626 a 1.4702376,1.4702376 0 0 0 -0.0391,0.126953 l -2.07031,8.193359 a 1.4702376,1.4702376 0 0 0 0,0.002 l -2.16015,8.5918 -1.58204,6.24023 -0.21093,0.32422 a 1.4702376,1.4702376 0 0 0 -0.22071,0.57422 l -0.77343,4.86914 -1.62891,8.91992 -2.74805,10.38672 a 1.4702376,1.4702376 0 0 0 -0.0371,0.5625 l 0.13868,1.07422 -0.8086,3.71875 a 1.4702376,1.4702376 0 0 0 -0.01,0.0469 l -0.59961,3.25976 -2.23438,9.35156 a 1.4702376,1.4702376 0 0 0 -0.0273,0.1504 l -0.6836,5.20898 -0.39062,1.61914 -0.0898,-0.44726 a 1.4702376,1.4702376 0 0 0 -0.043,-0.16407 l -3.69532,-11.45312 -2.32031,-9.33399 a 1.4702376,1.4702376 0 0 0 -0.0332,-0.11523 l -1.29102,-3.81641 -1.89453,-6.1914 a 1.4702376,1.4702376 0 0 0 -0.01,-0.0273 l -0.59766,-1.82617 -5.42383,-18.71875 -1.89453,-7.64453 a 1.4702376,1.4702376 0 0 0 -0.0801,-0.23438 l -1.3457,-3.08007 -6.79688,-23.447269 a 1.4702376,1.4702376 0 0 0 -0.008,-0.02539 l -3.36719,-10.839844 a 1.4702376,1.4702376 0 0 0 -0.68164,-0.845703 l -1.64453,-0.927734 A 1.4702376,1.4702376 0 0 0 104.48828,73 l -3.36719,1.189453 a 1.4702376,1.4702376 0 0 0 -0.64257,2.324219 l 1.5,1.814453 1.78906,4.355469 11.03515,36.416016 a 1.4702376,1.4702376 0 0 0 0,0.004 l 3.62696,11.88281 3.62304,12.81055 3.88672,13.87695 a 1.4702376,1.4702376 0 0 0 0.01,0.0293 l 5.59961,18.47071 0.84961,3.50781 1.48828,6.96094 -0.375,1.95508 a 1.4702376,1.4702376 0 0 0 -0.0137,0.0781 l -0.6875,5.02539 a 1.4702376,1.4702376 0 0 0 -0.002,0.0215 l -1.125,9.25195 a 1.4702376,1.4702376 0 0 0 0.0117,0.43359 l 0.16992,0.97071 -0.56445,1.12695 -0.61133,-2.55078 -0.41992,-1.92774 -0.6875,-4.19726 a 1.4702376,1.4702376 0 0 0 -0.0391,-0.17188 l -1.0293,-3.53515 -1.89062,-7.77149 a 1.4702376,1.4702376 0 0 0 -0.46094,-0.75976 l -0.20117,-0.17578 -0.95508,-6.21094 a 1.4702376,1.4702376 0 0 0 -0.0742,-0.28516 l -0.75976,-2.06836 -2.06055,-6.83203 a 1.4702376,1.4702376 0 0 0 -0.11328,-0.27344 l -1.46289,-2.71875 v -4.7832 a 1.4702376,1.4702376 0 0 0 -0.0488,-0.37305 l -1.55664,-5.94726 a 1.4702376,1.4702376 0 0 0 -0.0312,-0.10156 l -1.79883,-5.26563 0.14453,-1.8125 a 1.4702376,1.4702376 0 0 0 -0.0625,-0.55664 l -1.95312,-6.23438 -0.58594,-3.98242 a 1.4702376,1.4702376 0 0 0 -0.28516,-0.67382 L 113.37305,135 112.6543,130.60547 a 1.4702376,1.4702376 0 0 0 -0.0254,-0.125 l -2.85352,-11.24024 a 1.4702376,1.4702376 0 0 0 -0.043,-0.13867 l -2.18164,-6.03906 -0.15234,-1.53711 a 1.4702376,1.4702376 0 0 0 -0.0762,-0.3457 l -5.09766,-14.406252 a 1.4702376,1.4702376 0 0 0 -0.27149,-0.466797 l -0.18164,-0.212891 -2.416011,-6.115234 a 1.4702376,1.4702376 0 0 0 -0.433594,-0.59375 l -1.117187,-0.919922 -2.13086,-1.800782 -0.708984,-2.93164 v -0.07617 l 0.363281,-0.3125 0.201172,0.0293 a 1.4702376,1.4702376 0 0 0 1.078125,-0.267578 l 3.798828,-2.775391 a 1.4702376,1.4702376 0 0 0 -0.867188,-2.658203 h -5.439453 a 1.4702376,1.4702376 0 0 0 -1.228515,0.664063 l -0.19336,0.292968 -0.421875,-0.179687 a 1.4702376,1.4702376 0 0 0 -1.242187,0.04297 l -3.433594,1.75 -5.746094,1.021484 a 1.4702376,1.4702376 0 0 0 -0.738281,0.365234 l -1.425781,1.3125 -4.701172,0.97461 a 1.4702376,1.4702376 0 0 0 -0.05469,0.01172 L 71.71875,84.71875 a 1.4702376,1.4702376 0 0 0 -0.376953,0.152344 l -1.978516,1.134765 -6.720703,2.605469 a 1.4702376,1.4702376 0 0 0 -0.11914,0.05273 l -2.582032,1.271485 -3.609375,1.15625 a 1.4702376,1.4702376 0 0 0 -0.117187,0.04297 l -3.800782,1.58789 A 1.4702376,1.4702376 0 0 0 51.861328,93.125 l -1.466797,1.71875 a 1.4702376,1.4702376 0 0 0 -0.216797,0.341797 l -1.21289,2.646484 A 1.4702376,1.4702376 0 0 0 49.070312,99.25 l 5.960938,9.12109 2.074219,3.16797 a 1.4702376,1.4702376 0 0 0 0.449219,0.43946 l 3.36914,2.11718 a 1.4702376,1.4702376 0 0 0 2.009766,-0.43554 l 0.519531,-0.78907 a 1.4702376,1.4702376 0 0 0 0.03516,-1.55859 l -2.375,-4 0.05273,-1.91016 0.136718,-0.10351 a 1.4702376,1.4702376 0 0 0 0.519532,-0.76172 l 0.83789,-2.91016 3.689453,-3.392575 -0.132812,-0.06836 a 1.4702376,1.4702376 0 0 0 1.685547,-0.246094 l 0.611328,-0.583984 4.125,-2.908204 2.130859,-1.001953 a 1.4702376,1.4702376 0 0 0 0.181641,-0.101562 l 1.789062,-1.171875 3.947266,-2.363282 a 1.4702376,1.4702376 0 0 0 0.351562,-0.294921 l 0.13086,-0.150391 1.095703,0.214844 1.847656,4.1875 a 1.4702376,1.4702376 0 0 0 0.179688,0.300781 1.4702376,1.4702376 0 0 0 -0.251953,0.871094 l 0.11914,3.787109 -0.691406,22.121092 -2.152344,24.41602 a 1.4702376,1.4702376 0 0 0 -0.0059,0.1289 V 147 l -0.851563,6.9082 -0.345703,2.62891 -0.771484,5.25391 -1.376953,7.78125 a 1.4702376,1.4702376 0 0 0 -0.01172,0.0703 l -0.683594,5.35156 -1.191406,5.21484 a 1.4702376,1.4702376 0 0 0 -0.02344,0.13672 l -0.765626,5.84375 -3.166015,11.40821 a 1.4702376,1.4702376 0 0 0 -0.01172,0.0449 l -1.117187,4.5918 -1.195313,4.05859 -2.066406,6.84765 -2.033203,6.08985 -3.925781,7.70312 a 1.4702376,1.4702376 0 0 0 -0.0098,0.0195 l -1.96875,4.01563 -1.648438,1.67969 a 1.4702376,1.4702376 0 0 0 -0.380859,0.6914 l -0.275391,1.17383 -3.625,5.0586 -2.386718,2.14062 a 1.4702376,1.4702376 0 0 0 -0.03906,0.0371 l -2.505859,2.42188 -2.189453,1.50195 -1.882813,0.48047 -2.615234,-1 -1.085938,-1.47852 -0.351562,-2.26562 0.486328,-7.81055 0.683594,-1.15234 a 1.4702376,1.4702376 0 0 0 0.126953,-0.28125 l 2.535156,-7.51954 0.193359,-0.0703 0.646485,4.04688 a 1.4702376,1.4702376 0 0 0 0.529297,0.91406 l 1.642578,1.32031 a 1.4702376,1.4702376 0 0 0 1.404297,0.24219 l 3.023437,-1.05078 a 1.4702376,1.4702376 0 0 0 0.837891,-0.74024 l 0.486328,-0.99414 3.416015,-5.49023 a 1.4702376,1.4702376 0 0 0 0.140626,-1.25977 l -0.697266,-2.01172 v -1.21093 a 1.4702376,1.4702376 0 0 0 -0.181641,-0.70703 l -1.8125,-3.29883 a 1.4702376,1.4702376 0 0 0 -0.289062,-0.3711 l -3.712891,-3.44336 a 1.4702376,1.4702376 0 0 0 -2.271484,0.3418 l -0.269532,0.46289 h 0.154297 a 1.4702376,1.4702376 0 0 0 -0.851562,0.27149 l -2.417969,1.71679 a 1.4702376,1.4702376 0 0 0 -0.339844,0.33789 l -1.734375,2.40235 -1.978515,1.89258 a 1.4702376,1.4702376 0 0 0 -0.353516,0.53125 l -1.255859,3.24804 -0.609375,0.55469 a 1.4702376,1.4702376 0 0 0 -0.363282,0.51758 l -2.162109,5.15429 a 1.4702376,1.4702376 0 0 0 -0.105469,0.4043 l -0.287109,2.54492 -0.164063,0.16797 a 1.4702376,1.4702376 0 0 0 -0.414062,0.89844 l -0.607422,6.87305 a 1.4702376,1.4702376 0 0 0 0.117188,0.71679 L 34.75,240.4668 v 3.13086 a 1.4702376,1.4702376 0 0 0 0.117188,0.57617 l 2.417968,5.68359 a 1.4702376,1.4702376 0 0 0 0.324219,0.47266 l 3.369141,3.30664 a 1.4702376,1.4702376 0 0 0 1.148437,0.41601 l 1.279297,-0.10351 2.847656,0.84766 a 1.4702376,1.4702376 0 0 0 1.09961,-0.10547 l 3.076172,-1.60547 0.08594,0.0176 a 1.4702376,1.4702376 0 0 0 1.367187,-0.42383 l 2.283204,-2.40039 0.855468,0.0703 a 1.4702376,1.4702376 0 0 0 1.466797,-0.87695 l 0.806641,-1.84961 1.501953,-2.18946 a 1.4702376,1.4702376 0 0 0 1.544922,-0.63086 l 3.367187,-5.15429 a 1.4702376,1.4702376 0 0 0 0.183594,-0.40235 l 0.65625,-2.30078 0.04297,-0.0156 a 1.4702376,1.4702376 0 0 0 0.667969,-0.46289 l 1.294922,-1.58789 a 1.4702376,1.4702376 0 0 0 0.251953,-0.45508 l 0.875,-2.5625 0.1875,-0.12305 a 1.4702376,1.4702376 0 0 0 0.55664,-0.68359 l 1.394531,-3.51367 1.173829,-1.5625 a 1.4702376,1.4702376 0 0 0 0.224609,-0.43164 l 2.835938,-8.79688 1.267578,-2.97656 a 1.4702376,1.4702376 0 0 0 0.07422,-0.92969 l -0.158203,-0.63281 0.984375,-2.83399 H 75.78125 a 1.4702376,1.4702376 0 0 0 1.416016,-1.07422 l 1.814453,-6.47656 a 1.4702376,1.4702376 0 0 0 0.05078,-0.5 l -0.05664,-0.7832 1.283203,-2.54688 a 1.4702376,1.4702376 0 0 0 0.152344,-0.53711 l 0.230469,-2.67382 0.3125,-0.47852 a 1.4702376,1.4702376 0 0 0 0.210937,-0.50586 l 1.339844,-6.41406 0.59375,-1.13867 a 1.4702376,1.4702376 0 0 0 0.166016,-0.75586 l -0.07227,-1.39063 1.595703,-7.34179 a 1.4702376,1.4702376 0 0 0 0.01758,-0.0879 l 0.34375,-2.22071 1.36914,-7.08203 0.513672,-2.22266 a 1.4702376,1.4702376 0 0 0 0.01563,-0.0742 l 0.863281,-4.89454 a 1.4702376,1.4702376 0 0 0 0.01953,-0.15039 l 0.414062,-5.73046 0.875,-2.31641 a 1.4702376,1.4702376 0 0 0 -0.01953,-1.08789 l -0.197266,-0.4707 -0.193359,0.16601 a 1.4702376,1.4702376 0 0 0 0.501953,-1.01562 l 0.253906,-4.05274 0.941406,-7.08398 a 1.4702376,1.4702376 0 0 0 0.0098,-0.0957 l 0.603516,-9.08789 0.404297,-3.59961 0.355468,-0.87109 a 1.4702376,1.4702376 0 0 0 0.107422,-0.50195 l 0.300781,-8.35157 0.56836,1.4336 v 0.9082 a 1.4702376,1.4702376 0 0 0 0.117187,0.57617 l 1.203125,2.82618 0.148438,1.62695 a 1.4702376,1.4702376 0 0 0 0.09961,0.41015 l 1.164063,2.91993 1.529297,7.27929 a 1.4702376,1.4702376 0 0 0 1.070312,1.1211 l -0.28125,-0.0586 0.845703,4.33594 a 1.4702376,1.4702376 0 0 0 0.294922,0.63477 l 0.777344,0.97461 0.767581,2.46093 2.14453,9.32813 a 1.4702376,1.4702376 0 0 0 0.0566,0.18359 l 1.00976,2.70313 1.79102,7.0625 a 1.4702376,1.4702376 0 0 0 0.006,0.0195 l 0.7793,2.9082 3.97461,14.80664 a 1.4702376,1.4702376 0 0 0 0.006,0.0234 l 2.13477,7.45312 0.84961,5.07227 a 1.4702376,1.4702376 0 0 0 0.0371,0.16992 l 2.76758,9.48438 -0.0469,0.36132 a 1.4702376,1.4702376 0 0 0 0.082,0.7129 l 0.81055,2.14062 -0.10937,0.66602 a 1.4702376,1.4702376 0 0 0 0.0332,0.62304 l 4.64648,17.11524 0.58985,3.49609 a 1.4702376,1.4702376 0 0 0 0.48242,0.86328 l 0.17969,0.15821 0.53906,4.46289 a 1.4702376,1.4702376 0 0 0 0.19336,0.57226 l 0.61328,1.03711 -0.0332,0.30078 a 1.4702376,1.4702376 0 0 0 0.0312,0.50391 l 0.94921,3.9668 a 1.4702376,1.4702376 0 0 0 1.19922,1.10937 l 6.6543,1.05664 a 1.4702376,1.4702376 0 0 0 1.5332,-0.76953 l -0.043,0.0898 1.69921,0.61133 a 1.4702376,1.4702376 0 0 0 1.82032,-0.74023 1.4702376,1.4702376 0 0 0 1.14453,-1.76172 l -1.00977,-4.50586 -0.0762,-1.46094 -0.51953,-10.69726 a 1.4702376,1.4702376 0 0 0 -0.0586,-0.3418 l -0.1836,-0.63086 0.3418,-0.67773 a 1.4702376,1.4702376 0 0 0 0.16015,-0.66407 v -4.09961 l 0.3418,-0.95117 a 1.4702376,1.4702376 0 0 0 0.0859,-0.45312 l 0.25976,-8.35157 0.59766,-3.32421 2.85742,9.98242 v 1.12109 a 1.4702376,1.4702376 0 0 0 0.44336,1.05078 l 2.15821,2.10938 a 1.4702376,1.4702376 0 0 0 2.2207,-0.19141 l 0.94922,-1.31836 a 1.4702376,1.4702376 0 0 0 0.23828,-1.1914 l -6.3418,-27.27735 0.46094,-6.11328 0.14258,-0.14648 a 1.4702376,1.4702376 0 0 0 0.40429,-0.80274 l 1.29102,-8.30469 0.42578,-2.20312 2.32813,-10.69336 a 1.4702376,1.4702376 0 0 0 -0.041,-0.77734 l -0.0547,-0.16602 0.2793,-0.48437 a 1.4702376,1.4702376 0 0 0 0.16406,-0.43555 l 4.31836,-20.88672 0.77735,-3.68945 1.88867,-8.67383 2.83789,-10.00586 a 1.4702376,1.4702376 0 0 0 0.0566,-0.40039 v -1.05078 l 0.37695,-1.97266 1.15625,-2.9082 a 1.4702376,1.4702376 0 0 0 0.0508,-0.14453 l 2.16016,-7.671878 a 1.4702376,1.4702376 0 0 0 0.0547,-0.398438 v -0.257812 l 0.57226,-0.976563 a 1.4702376,1.4702376 0 0 0 0.16797,-0.43164 l 1.11524,-5.103516 0.39257,-1.332031 3.71485,-8.972656 1.24804,-1.009766 0.26368,0.378906 -0.043,0.53125 a 1.4702376,1.4702376 0 0 0 0.0957,0.65625 l 1.03711,2.646485 a 1.4702376,1.4702376 0 0 0 0.51172,0.658203 l 1.29297,0.927734 a 1.4702376,1.4702376 0 0 0 1.42773,0.160156 l 3.45703,-1.457031 a 1.4702376,1.4702376 0 0 0 0.69336,-0.605469 l 1.72461,-2.90625 a 1.4702376,1.4702376 0 0 0 0.15039,-0.349609 l 1.98828,-7.005859 a 1.4702376,1.4702376 0 0 0 -0.0469,-0.941407 l -1.72656,-4.363281 a 1.4702376,1.4702376 0 0 0 -0.16797,-0.308594 l -2.24805,-3.175781 a 1.4702376,1.4702376 0 0 0 -0.91992,-0.59375 l -2.06641,-0.398437 a 1.4702376,1.4702376 0 0 0 -0.30469,-0.02734 z M 58.439453,245.30469 a 1.4702376,1.4702376 0 0 0 0.345703,0.125 l -0.0293,0.0391 z"
       transform="translate(-2.1047266,5.4899219)" />
    <path
       id="path837"
       style="font-style:normal;font-variant:normal;font-weight:normal;font-stretch:normal;font-size:20.6215px;line-height:1.25;font-family:'Party LET';-inkscape-font-specification:'Party LET, Normal';font-variant-ligatures:normal;font-variant-caps:normal;font-variant-numeric:normal;font-variant-east-asian:normal;fill:#a06a55;fill-opacity:1;stroke-width:1.29104;stroke-miterlimit:4;stroke-dasharray:none"
       d="m 198.1677,34.873538 -4.97642,1.426845 -5.2272,5.976801 -4.03577,6.671002 -1.77858,4.752714 -2.85006,6.323883 -6.76632,18.634638 -2.84443,10.893343 -2.9699,11.423596 -2.2573,8.6184 -0.47282,0.70349 -1.06556,6.49753 -2.25722,11.95384 -3.7965,13.8819 0.23335,1.76449 -1.18562,5.2732 -0.83254,4.38628 -3.08391,12.48386 -0.95176,7.02788 -2.01783,8.08815 -1.77867,-2.45844 -0.83152,-4.04888 -5.10176,-15.28939 -3.20356,-12.47444 -1.78426,-5.09945 -2.6107,-8.26162 -0.83251,-2.45819 -7.47321,-24.95853 -2.61639,-10.199539 -1.89832,-4.212534 -9.37689,-31.291959 -4.62874,-14.412183 -2.2572,-1.234877 -4.62876,1.581727 2.25732,2.641362 2.61081,6.150518 15.19134,48.509475 4.98763,15.81952 4.98783,17.05329 5.34124,18.45136 7.71245,24.61141 1.18572,4.74319 2.13765,9.6689 -0.59304,2.98871 -0.94667,6.68041 -1.54472,12.30092 0.35258,1.92795 -1.18571,2.28474 -0.47283,3.3452 -2.37701,-0.70349 -1.65876,-6.68065 -0.59204,-2.63194 -0.95175,-5.62995 -1.42507,-4.74291 -2.61081,-10.3729 -0.8315,-0.70346 -1.42508,-8.96541 -1.06556,-2.8053 -2.85019,-9.13913 -2.25159,-4.0487 v -6.85416 l -2.13758,-7.90498 -2.61068,-7.38429 0.23435,-2.81498 -2.73042,-8.43514 -0.8315,-5.4468 -1.65884,-2.11123 -1.06558,-6.32387 -3.92175,-14.94231 -3.08392,-8.261652 L 105.9518,94.825933 98.946087,75.670978 98.473264,75.14085 95.030271,66.705589 93.485554,65.47323 90.04264,62.658381 88.856928,57.915323 v -1.233631 l 1.898195,-1.579857 1.185713,0.168377 5.221382,-3.692216 H 89.68904 l -1.191334,1.755118 -2.131854,-0.876868 -4.987827,2.458338 -8.191282,1.408245 -2.371331,2.11123 -7.005673,1.406337 -4.389167,1.05023 -2.850155,1.581719 -9.377107,3.518729 -3.682382,1.755078 -5.101857,1.581719 -5.221391,2.111257 -2.017937,2.284951 -1.664445,3.518335 8.191282,12.127484 2.850164,4.212653 4.628627,2.814963 0.712293,-1.050198 -3.562762,-5.803327 0.119229,-4.03928 0.951753,-0.703504 1.305448,-4.395945 6.526733,-5.803435 1.065582,0.530127 0.951753,-0.876853 5.934082,-4.048871 3.089519,-1.406457 2.491066,-1.58163 5.460852,-3.162187 0.94666,-1.050195 3.682485,0.703468 2.964088,6.497502 0.523768,-0.462281 7.837992,24.717201 h 0.775463 L 90.041,102.01956 v 1.58174 l 1.77846,4.03929 0.233374,2.46788 1.664538,4.03918 2.137672,9.84272 0.831507,0.16836 1.419488,7.03744 1.305341,1.58174 1.19132,3.69222 2.96421,12.47417 1.42506,3.69244 2.4911,9.49554 1.07105,3.86569 5.46097,19.68533 2.96418,10.01597 1.18552,6.85418 3.92195,13.00457 -0.12023,0.88814 1.30534,3.33532 -0.23945,1.40634 6.41291,22.84743 0.82641,4.74281 0.83252,0.70349 0.8315,6.68039 1.18571,1.93764 -0.12023,1.05022 1.30542,5.27316 9.14326,1.40649 0.71228,-1.40649 4.03577,1.40649 -0.95176,-1.7645 2.37135,0.70349 -1.42497,-6.15054 -0.11515,-2.11123 -0.71227,-14.2289 -0.47893,-1.57982 0.83151,-1.59104 v -5.79362 l 0.59202,-1.58163 0.35974,-11.25035 1.30534,-7.03741 1.1856,-5.44668 6.29319,21.26658 v 1.76452 l 2.96418,2.80529 1.30534,-1.75333 -8.78423,-36.55561 0.71228,-9.13887 0.71228,-0.70351 1.77848,-11.07636 0.59918,-2.98871 3.20354,-14.23855 -0.35969,-1.05022 0.83252,-1.40635 5.93397,-27.77326 1.07117,-4.91653 2.6107,-11.59719 3.91616,-13.36134 v -1.579851 l 0.59204,-2.988443 1.65884,-4.039186 2.96978,-10.199406 v -0.876832 l 1.06558,-1.755228 1.54481,-6.854132 0.59206,-1.937761 5.34111,-12.483969 3.80212,-2.978789 2.01793,2.805303 -0.11913,1.40647 1.42508,3.518459 1.77849,1.233631 4.74844,-1.9376 2.37135,-3.86569 2.73043,-9.31236 -2.37134,-5.803439 -3.08962,-4.222342 z m -120.282424,37.616139 0.165085,5.099675 -0.951753,29.527868 -2.964183,32.51628 v 2.28474 l -1.185722,9.31221 -0.478928,3.51873 -1.065571,7.02788 -1.898111,10.37286 -0.951751,7.21095 -1.658841,7.02764 -1.07107,7.90497 -4.38927,15.29871 -1.544717,6.15067 -1.65884,5.44653 -2.850154,9.13914 -2.850271,8.26163 -5.46085,10.37288 -2.850167,5.62026 -2.491061,2.45785 -0.472816,1.93774 -5.341124,7.21091 -3.443019,2.98848 -3.562752,3.33555 -3.442917,2.28471 -3.556945,0.87687 -4.748467,-1.75524 -2.137569,-2.8152 -0.592045,-3.69196 0.712287,-11.06695 1.185512,-1.93763 3.796512,-10.89331 2.017838,-0.70349 1.425183,-0.70351 1.305243,7.90487 2.257405,1.75334 4.155512,-1.39706 0.712283,-1.40635 4.748265,-7.38442 -1.071078,-2.98845 v -1.9379 l -2.490963,-4.38625 -5.10186,-4.57912 -0.951752,1.59104 h -0.951751 l -3.323287,2.2847 -2.491062,3.33568 -2.850062,2.64124 -1.898204,4.74317 -1.185819,1.05023 -2.969792,6.85413 -0.472816,4.04887 -0.712289,0.70349 -0.8325272,9.13874 0.7122852,1.5816 v 4.56969 l 3.323286,7.5579 4.628635,4.39593 2.137672,-0.16837 4.275242,1.23236 4.868099,-2.45819 0.826414,0.16837 3.802115,-3.86553 2.13757,0.16836 1.185717,-2.63179 2.371332,-3.34514 0.831508,-1.05018 1.065575,0.53013 4.628637,-6.85416 1.191419,-4.04887 1.065572,-0.34671 1.778574,-2.11121 1.425086,-4.03906 0.831507,-0.53013 2.017939,-4.91654 1.778576,-2.2846 3.921744,-11.78047 1.77847,-4.03944 -0.359704,-1.40635 2.017834,-5.62983 h 0.832529 l 2.490961,-8.60875 -0.114118,-1.57982 2.012233,-3.86584 0.359714,-4.04911 0.712283,-1.05018 1.898204,-8.7918 0.946662,-1.75319 -0.114145,-2.11112 2.251596,-10.0162 0.478938,-2.98873 1.898206,-9.48599 0.712282,-2.9882 1.185515,-6.50718 0.592037,-7.90512 1.305448,-3.34499 -0.832529,-1.92805 0.832529,-0.7035 0.352578,-5.45661 1.305353,-9.48569 0.831507,-12.12747 0.593059,-5.09982 0.592049,-1.40822 0.478926,-12.830947 0.273095,-1.957098 z" />
  </g>
</svg>
