<?xml version="1.0" encoding="UTF-8" standalone="no"?>
<svg
   xmlns:osb="http://www.openswatchbook.org/uri/2009/osb"
   xmlns:dc="http://purl.org/dc/elements/1.1/"
   xmlns:cc="http://creativecommons.org/ns#"
   xmlns:rdf="http://www.w3.org/1999/02/22-rdf-syntax-ns#"
   xmlns:svg="http://www.w3.org/2000/svg"
   xmlns="http://www.w3.org/2000/svg"
   xmlns:xlink="http://www.w3.org/1999/xlink"
   xmlns:sodipodi="http://sodipodi.sourceforge.net/DTD/sodipodi-0.dtd"
   xmlns:inkscape="http://www.inkscape.org/namespaces/inkscape"
   width="793.70081"
   height="1122.5197"
   viewBox="0 0 210 297"
   version="1.1"
   id="svg8"
   sodipodi:docname="logo2.svg"
   inkscape:version="1.0.2 (e86c8708, 2021-01-15)">
  <defs
     id="defs2">
    <linearGradient
       id="linearGradient860"
       osb:paint="solid">
      <stop
         style="stop-color:#a06671;stop-opacity:1;"
         offset="0"
         id="stop858" />
    </linearGradient>
    <linearGradient
       inkscape:collect="always"
       xlink:href="#linearGradient860"
       id="linearGradient862"
       x1="96.060661"
       y1="148.50459"
       x2="132.40794"
       y2="148.50459"
       gradientUnits="userSpaceOnUse"
       gradientTransform="matrix(4.4975184,0,0,4.4922675,-408.85014,-512.8033)" />
    <linearGradient
       inkscape:collect="always"
       xlink:href="#linearGradient860"
       id="linearGradient923"
       gradientUnits="userSpaceOnUse"
       gradientTransform="matrix(5.173231,0,0,5.10409,-486.33949,-603.45703)"
       x1="96.060661"
       y1="148.50459"
       x2="132.40794"
       y2="148.50459" />
  </defs>
  <sodipodi:namedview
     id="base"
     pagecolor="#ffffff"
     bordercolor="#666666"
     borderopacity="1.0"
     inkscape:pageopacity="0.0"
     inkscape:pageshadow="2"
     inkscape:zoom="0.19149919"
     inkscape:cx="494.4346"
     inkscape:cy="452.85763"
     inkscape:document-units="px"
     inkscape:current-layer="layer1"
     inkscape:document-rotation="0"
     showgrid="false"
     units="px"
     inkscape:window-width="826"
     inkscape:window-height="793"
     inkscape:window-x="472"
     inkscape:window-y="25"
     inkscape:window-maximized="0" />
  <metadata
     id="metadata5">
    <rdf:RDF>
      <cc:Work
         rdf:about="">
        <dc:format>image/svg+xml</dc:format>
        <dc:type
           rdf:resource="http://purl.org/dc/dcmitype/StillImage" />
        <dc:title></dc:title>
      </cc:Work>
    </rdf:RDF>
  </metadata>
  <g
     inkscape:label="Layer 1"
     inkscape:groupmode="layer"
     id="layer1">
    <path
       style="font-style:normal;font-variant:normal;font-weight:normal;font-stretch:normal;font-size:20.6215px;line-height:1.25;font-family:'Party LET';-inkscape-font-specification:'Party LET, Normal';font-variant-ligatures:normal;font-variant-caps:normal;font-variant-numeric:normal;font-variant-east-asian:normal;fill:#f2dfd7;fill-opacity:1;stroke-width:0.0899999;stroke-miterlimit:4;stroke-dasharray:none"
       sodipodi:type="inkscape:offset"
       inkscape:radius="1.4700906"
       inkscape:original="M 142.21289 110.80859 L 140.01758 111.31836 L 137.70898 113.45508 L 135.92773 115.83984 L 135.14258 117.54102 L 133.88477 119.80078 L 130.89844 126.46484 L 129.64453 130.36133 L 128.33203 134.44531 L 127.33594 137.52734 L 127.12695 137.7793 L 126.6582 140.10352 L 125.66211 144.37695 L 123.98633 149.3418 L 124.08789 149.97266 L 123.56445 151.85742 L 123.19727 153.42773 L 121.83594 157.89062 L 121.41602 160.4043 L 120.52539 163.29688 L 119.74023 162.41797 L 119.37305 160.96875 L 117.12305 155.50195 L 115.70898 151.04102 L 114.91992 149.2168 L 113.76758 146.26367 L 113.40039 145.38477 L 110.10352 136.45898 L 108.94727 132.8125 L 108.10938 131.30469 L 103.9707 120.11523 L 101.92773 114.96094 L 100.93164 114.51953 L 98.888672 115.08594 L 99.884766 116.03125 L 101.03711 118.23047 L 107.74219 135.57617 L 109.94336 141.23438 L 112.14648 147.33203 L 114.50391 153.92969 L 117.90625 162.73047 L 118.42969 164.42773 L 119.37305 167.88477 L 119.11133 168.95312 L 118.69336 171.3418 L 118.01172 175.74023 L 118.16797 176.42969 L 117.64453 177.24805 L 117.43555 178.44336 L 116.38672 178.19141 L 115.6543 175.80273 L 115.39258 174.86133 L 114.97266 172.84961 L 114.34375 171.15234 L 113.19141 167.44336 L 112.82422 167.19141 L 112.19531 163.98633 L 111.72656 162.98242 L 110.46875 159.71484 L 109.47461 158.26758 L 109.47461 155.81641 L 108.53125 152.98828 L 107.37891 150.34766 L 107.48242 149.3418 L 106.27734 146.32617 L 105.91016 144.37695 L 105.17773 143.62305 L 104.70703 141.36133 L 102.97656 136.01758 L 101.61523 133.06445 L 101.51172 132.24609 L 98.419922 125.39648 L 98.210938 125.20703 L 96.691406 122.19141 L 96.009766 121.75 L 94.490234 120.74414 L 93.966797 119.04688 L 93.966797 118.60547 L 94.804688 118.04102 L 95.328125 118.10156 L 97.632812 116.78125 L 94.333984 116.78125 L 93.808594 117.4082 L 92.867188 117.0957 L 90.666016 117.97461 L 87.050781 118.47852 L 86.003906 119.23242 L 82.912109 119.73633 L 80.974609 120.11133 L 79.716797 120.67773 L 75.578125 121.93555 L 73.953125 122.5625 L 71.701172 123.12891 L 69.396484 123.88281 L 68.505859 124.70117 L 67.771484 125.95898 L 71.386719 130.29492 L 72.644531 131.80273 L 74.6875 132.80859 L 75.001953 132.43359 L 73.429688 130.35742 L 73.482422 128.91406 L 73.902344 128.66211 L 74.478516 127.08984 L 77.359375 125.01367 L 77.830078 125.20312 L 78.25 124.89062 L 80.869141 123.44336 L 82.232422 122.93945 L 83.332031 122.375 L 85.742188 121.24414 L 86.160156 120.86719 L 87.785156 121.11914 L 89.09375 123.44336 L 89.324219 123.27734 L 92.783203 132.11719 L 93.126953 132.11719 L 94.490234 134.81836 L 94.490234 135.38477 L 95.275391 136.82812 L 95.376953 137.71094 L 96.113281 139.15625 L 97.056641 142.67578 L 97.423828 142.73633 L 98.048828 145.25195 L 98.625 145.81836 L 99.152344 147.13867 L 100.45898 151.59961 L 101.08789 152.91992 L 102.1875 156.31445 L 102.66016 157.69727 L 105.07031 164.73633 L 106.37891 168.31836 L 106.90234 170.76953 L 108.63281 175.41992 L 108.58008 175.73828 L 109.15625 176.92969 L 109.05078 177.43359 L 111.88086 185.60352 L 112.24609 187.29883 L 112.61328 187.55078 L 112.98047 189.93945 L 113.50391 190.63281 L 113.45117 191.00781 L 114.02734 192.89453 L 118.0625 193.39648 L 118.37695 192.89453 L 120.1582 193.39648 L 119.73828 192.76562 L 120.78516 193.01758 L 120.15625 190.81836 L 120.10547 190.0625 L 119.79102 184.97461 L 119.58008 184.41016 L 119.94531 183.8418 L 119.94531 181.76953 L 120.20703 181.20312 L 120.36719 177.17969 L 120.94141 174.66406 L 121.46484 172.7168 L 124.24414 180.32031 L 124.24414 180.95117 L 125.55078 181.95508 L 126.12695 181.32812 L 122.25 168.25586 L 122.56445 164.98828 L 122.87891 164.73633 L 123.66406 160.77539 L 123.92969 159.70703 L 125.3418 154.61523 L 125.18359 154.24023 L 125.55078 153.73633 L 128.16992 143.80469 L 128.64258 142.04688 L 129.79492 137.90039 L 131.52344 133.12109 L 131.52344 132.55664 L 131.78516 131.48828 L 132.51758 130.04297 L 133.82812 126.39648 L 133.82812 126.08203 L 134.29883 125.45508 L 134.98047 123.00391 L 135.24219 122.31055 L 137.59961 117.84766 L 139.27734 116.78125 L 140.16797 117.78516 L 140.11523 118.28711 L 140.74414 119.54688 L 141.5293 119.98828 L 143.625 119.29492 L 144.67188 117.91211 L 145.87695 114.58203 L 144.83008 112.50586 L 143.4668 110.99609 L 142.21289 110.80859 z M 89.125 124.25977 L 89.197266 126.08203 L 88.777344 136.64258 L 87.46875 148.26953 L 87.46875 149.08594 L 86.945312 152.41602 L 86.734375 153.67578 L 86.263672 156.1875 L 85.425781 159.89648 L 85.005859 162.47656 L 84.273438 164.98828 L 83.800781 167.81641 L 81.865234 173.28711 L 81.181641 175.48633 L 80.451172 177.43359 L 79.193359 180.70117 L 77.933594 183.65625 L 75.523438 187.36523 L 74.265625 189.375 L 73.166016 190.25391 L 72.958984 190.94727 L 70.601562 193.52539 L 69.082031 194.59375 L 67.507812 195.78711 L 65.988281 196.60352 L 64.419922 196.91797 L 62.324219 196.29102 L 61.380859 195.2832 L 61.119141 193.96289 L 61.433594 190.00586 L 61.957031 189.3125 L 63.632812 185.41797 L 64.521484 185.16602 L 65.152344 184.91406 L 65.728516 187.74023 L 66.724609 188.36719 L 68.558594 187.86914 L 68.873047 187.36523 L 70.96875 184.72461 L 70.496094 183.65625 L 70.496094 182.96289 L 69.396484 181.39453 L 67.144531 179.75781 L 66.724609 180.32617 L 66.304688 180.32617 L 64.837891 181.14258 L 63.738281 182.33594 L 62.480469 183.28125 L 61.642578 184.97656 L 61.119141 185.35156 L 59.808594 187.80273 L 59.599609 189.25195 L 59.285156 189.50195 L 58.917969 192.77148 L 59.232422 193.33594 L 59.232422 194.9707 L 60.699219 197.67383 L 62.742188 199.24414 L 63.685547 199.18555 L 65.572266 199.625 L 67.720703 198.74609 L 68.085938 198.80664 L 69.763672 197.42383 L 70.707031 197.48438 L 71.230469 196.54297 L 72.277344 195.34766 L 72.644531 194.9707 L 73.113281 195.16211 L 75.15625 192.71094 L 75.683594 191.26172 L 76.152344 191.13867 L 76.9375 190.38281 L 77.566406 188.93945 L 77.933594 188.75 L 78.824219 186.99219 L 79.609375 186.17383 L 81.339844 181.96094 L 82.125 180.51758 L 81.966797 180.01367 L 82.857422 178.00195 L 83.224609 178.00195 L 84.324219 174.92188 L 84.273438 174.35742 L 85.162109 172.97461 L 85.320312 171.52734 L 85.634766 171.15234 L 86.472656 168.00781 L 86.890625 167.38086 L 86.839844 166.62695 L 87.833984 163.04492 L 88.044922 161.97461 L 88.882812 158.58398 L 89.197266 157.51562 L 89.720703 155.1875 L 89.982422 152.36133 L 90.558594 151.16406 L 90.191406 150.47461 L 90.558594 150.22461 L 90.714844 148.27344 L 91.291016 144.88086 L 91.658203 140.54297 L 91.919922 138.7207 L 92.179688 138.2168 L 92.392578 133.62891 L 92.511719 132.92773 L 89.125 124.25977 z "
       xlink:href="#path837"
       id="path854"
       inkscape:href="#path837"
       d="m 161.57422,114.86328 a 1.4702376,1.4702376 0 0 0 -0.34961,0.0391 l -2.19727,0.50977 a 1.4702376,1.4702376 0 0 0 -0.66796,0.35351 l -2.30665,2.13868 a 1.4702376,1.4702376 0 0 0 -0.17773,0.19922 l -1.78125,2.38476 A 1.4702376,1.4702376 0 0 0 153.9375,120.75 l -0.76172,1.65039 -1.23242,2.21289 a 1.4702376,1.4702376 0 0 0 -0.0566,0.11328 l -2.98633,6.66406 a 1.4702376,1.4702376 0 0 0 -0.0566,0.1504 l -1.25586,3.89453 a 1.4702376,1.4702376 0 0 0 -0.002,0.002 l -1.3086,4.08398 -0.91015,2.8125 -0.0273,0.0332 a 1.4702376,1.4702376 0 0 0 -0.31054,0.64648 l -0.4668,2.30274 -0.97461,4.18554 -1.65234,4.89649 a 1.4702376,1.4702376 0 0 0 -0.0586,0.70898 l 0.0508,0.31055 -0.43554,1.57422 a 1.4702376,1.4702376 0 0 0 -0.0156,0.0566 l -0.35547,1.52148 -1.34765,4.41797 a 1.4702376,1.4702376 0 0 0 -0.043,0.1875 l -0.22852,1.36524 -1.65429,-4.01563 -1.39454,-4.40039 a 1.4702376,1.4702376 0 0 0 -0.0527,-0.13867 l -0.77734,-1.80078 -1.14258,-2.92969 a 1.4702376,1.4702376 0 0 0 -0.0117,-0.0332 l -0.35547,-0.85157 -3.27734,-8.86132 -1.14258,-3.61524 a 1.4702376,1.4702376 0 0 0 -0.11719,-0.27148 l -0.7832,-1.40625 -4.09961,-11.08399 a 1.4702376,1.4702376 0 0 0 -0.0117,-0.0312 l -2.04297,-5.15429 a 1.4702376,1.4702376 0 0 0 -0.77148,-0.80274 l -0.9961,-0.44141 a 1.4702376,1.4702376 0 0 0 -0.98828,-0.0723 l -2.04297,0.56641 a 1.4702376,1.4702376 0 0 0 -1.05859,1.64062 h -3.10352 a 1.4702376,1.4702376 0 0 0 -1.08789,0.48047 l 0.0781,-0.0937 a 1.4702376,1.4702376 0 0 0 -1.00195,0.0312 l -2.03516,0.8125 -3.43945,0.48047 a 1.4702376,1.4702376 0 0 0 -0.65821,0.26367 l -0.76367,0.55273 -2.75,0.44532 a 1.4702376,1.4702376 0 0 0 -0.0449,0.008 l -1.9375,0.37695 a 1.4702376,1.4702376 0 0 0 -0.320313,0.10157 l -1.173828,0.52734 -4.048828,1.23047 a 1.4702376,1.4702376 0 0 0 -0.103516,0.0352 l -1.539063,0.59571 -2.164062,0.54297 a 1.4702376,1.4702376 0 0 0 -0.101562,0.0293 l -2.304688,0.75586 a 1.4702376,1.4702376 0 0 0 -0.535156,0.3125 l -0.890625,0.81641 a 1.4702376,1.4702376 0 0 0 -0.275391,0.3418 l -0.734375,1.25781 a 1.4702376,1.4702376 0 0 0 0.140625,1.68359 l 3.615234,4.33789 a 1.4702376,1.4702376 0 0 0 0,0.002 l 1.257813,1.50586 a 1.4702376,1.4702376 0 0 0 0.478516,0.375 l 2.042968,1.00782 a 1.4702376,1.4702376 0 0 0 1.779297,-0.37696 l 0.314453,-0.37695 a 1.4702376,1.4702376 0 0 0 0.04297,-1.83008 l -1.255859,-1.65625 0.0039,-0.125 -0.263672,0.15821 a 1.4702376,1.4702376 0 0 0 0.625,-0.75391 l 0.419922,-1.14648 1.857422,-1.33985 -0.283203,-0.11328 a 1.4702376,1.4702376 0 0 0 1.43164,-0.1875 l 0.339844,-0.25195 2.431642,-1.34375 1.25976,-0.46485 a 1.4702376,1.4702376 0 0 0 0.16602,-0.0723 l 1.07422,-0.55469 2.38476,-1.11914 a 1.4702376,1.4702376 0 0 0 0.3379,-0.21875 l -0.082,0.0723 0.23243,0.0371 0.83593,1.48438 A 1.4702376,1.4702376 0 0 0 107,129.84375 l 0.0703,1.76563 -0.41601,10.44726 -1.30274,11.57617 a 1.4702376,1.4702376 0 0 0 -0.01,0.16407 v 0.70117 l -0.50391,3.20898 -0.20703,1.23633 -0.46289,2.47461 -0.83203,3.68164 a 1.4702376,1.4702376 0 0 0 -0.0176,0.0879 l -0.40625,2.49023 -0.70703,2.42579 a 1.4702376,1.4702376 0 0 0 -0.0371,0.16992 l -0.45313,2.69922 -1.894528,5.34961 a 1.4702376,1.4702376 0 0 0 -0.01758,0.0547 l -0.667968,2.15821 -0.716797,1.90234 -1.246094,3.23828 -1.197266,2.81445 -2.339843,3.60157 a 1.4702376,1.4702376 0 0 0 -0.01367,0.0215 l -1.125,1.79688 -0.904297,0.72265 a 1.4702376,1.4702376 0 0 0 -0.490235,0.72461 l -0.111328,0.37305 -2.023437,2.21094 -1.388672,0.97656 a 1.4702376,1.4702376 0 0 0 -0.04297,0.0312 l -1.480468,1.125 -1.226563,0.6582 -0.996094,0.19922 -1.365234,-0.41016 -0.384766,-0.41015 -0.138672,-0.70703 0.263672,-3.32813 0.265625,-0.34961 a 1.4702376,1.4702376 0 0 0 0.175782,-0.30664 l 0.921874,-2.14258 0.05859,0.28321 a 1.4702376,1.4702376 0 0 0 0.658203,0.95117 l 0.996094,0.62695 a 1.4702376,1.4702376 0 0 0 1.169922,0.17383 l 1.833984,-0.5 a 1.4702376,1.4702376 0 0 0 0.859375,-0.63672 l 0.271485,-0.43359 2.044922,-2.57617 a 1.4702376,1.4702376 0 0 0 0.191406,-1.50977 l -0.345703,-0.7832 v -0.38282 a 1.4702376,1.4702376 0 0 0 -0.267578,-0.84375 l -1.09961,-1.56836 a 1.4702376,1.4702376 0 0 0 -0.33789,-0.3457 l -2.251954,-1.63867 a 1.4702376,1.4702376 0 0 0 -2.027343,0.28906 h 0.322265 a 1.4702376,1.4702376 0 0 0 -0.714843,0.18555 l -1.466797,0.81641 a 1.4702376,1.4702376 0 0 0 -0.367188,0.28906 l -1.007812,1.09375 -1.150391,0.86328 a 1.4702376,1.4702376 0 0 0 -0.435547,0.52539 l -0.675781,1.36719 -0.222656,0.16015 a 1.4702376,1.4702376 0 0 0 -0.441407,0.50196 l -1.310546,2.45117 a 1.4702376,1.4702376 0 0 0 -0.158204,0.48242 l -0.125,0.87305 0.136719,-0.10938 a 1.4702376,1.4702376 0 0 0 -0.541015,0.98242 l -0.367188,3.26758 a 1.4702376,1.4702376 0 0 0 0.175781,0.87696 l 0.128907,0.23437 v 1.25195 a 1.4702376,1.4702376 0 0 0 0.177734,0.70118 l 1.466797,2.70312 a 1.4702376,1.4702376 0 0 0 0.396484,0.46289 l 2.042969,1.57227 a 1.4702376,1.4702376 0 0 0 0.990234,0.30273 l 0.726563,-0.0469 1.675781,0.39257 a 1.4702376,1.4702376 0 0 0 0.890625,-0.0703 l 1.763672,-0.7207 -0.04883,-0.01 a 1.4702376,1.4702376 0 0 0 1.177734,-0.31445 l 1.228516,-1.01367 0.365234,0.0234 a 1.4702376,1.4702376 0 0 0 1.378907,-0.75391 l 0.445312,-0.80469 0.667969,-0.76367 a 1.4702376,1.4702376 0 0 0 1.136719,-0.52734 l 2.042968,-2.45118 a 1.4702376,1.4702376 0 0 0 0.253906,-0.43945 l 0.261719,-0.72461 -0.271484,0.0703 a 1.4702376,1.4702376 0 0 0 0.640625,-0.35937 l 0.785156,-0.75391 a 1.4702376,1.4702376 0 0 0 0.330078,-0.47461 l 0.419922,-0.96484 -0.09766,0.0508 a 1.4702376,1.4702376 0 0 0 0.636719,-0.64258 l 0.792968,-1.56054 0.632811,-0.65821 a 1.4702376,1.4702376 0 0 0 0.29883,-0.46093 l 1.70117,-4.13868 0.7461,-1.37695 a 1.4702376,1.4702376 0 0 0 0.11914,-1.11523 l 0.27929,-0.63086 h -0.58984 a 1.4702376,1.4702376 0 0 0 1.38476,-0.97657 l 1.09961,-3.07812 a 1.4702376,1.4702376 0 0 0 0.0801,-0.625 l -0.006,-0.0625 0.61524,-0.95898 a 1.4702376,1.4702376 0 0 0 0.22461,-0.63477 l 0.11132,-1.00586 0.0293,-0.0371 a 1.4702376,1.4702376 0 0 0 0.29102,-0.5625 l 0.77539,-2.9082 0.2832,-0.42383 a 1.4702376,1.4702376 0 0 0 0.24414,-0.91406 l -0.0332,-0.50586 0.92578,-3.3418 a 1.4702376,1.4702376 0 0 0 0.0254,-0.10742 l 0.20508,-1.03516 0.82226,-3.32617 0.30469,-1.03711 a 1.4702376,1.4702376 0 0 0 0.0234,-0.0937 l 0.52344,-2.32617 a 1.4702376,1.4702376 0 0 0 0.0293,-0.1875 l 0.23828,-2.5625 0.46094,-0.95703 a 1.4702376,1.4702376 0 0 0 0.13672,-0.79688 l -0.63281,0.43164 a 1.4702376,1.4702376 0 0 0 0.56445,-0.74414 1.4702376,1.4702376 0 0 0 -0.0957,-0.22265 l 0.10351,0.19531 a 1.4702376,1.4702376 0 0 0 0.0645,-0.32813 l 0.15039,-1.88476 0.56445,-3.32813 a 1.4702376,1.4702376 0 0 0 0.0156,-0.12109 l 0.36328,-4.29492 0.2207,-1.53516 0.14648,-0.28125 a 1.4702376,1.4702376 0 0 0 0.16407,-0.60937 l 0.0586,-1.25977 0.13867,0.25781 0.0703,0.60157 a 1.4702376,1.4702376 0 0 0 0.15039,0.49414 l 0.66406,1.30664 0.9043,3.37304 a 1.4702376,1.4702376 0 0 0 1.1289,1.06055 l -0.5332,-0.084 0.39258,1.57422 a 1.4702376,1.4702376 0 0 0 0.39648,0.69531 l 0.35547,0.3457 0.38477,0.96875 1.28906,4.39453 a 1.4702376,1.4702376 0 0 0 0.082,0.21875 l 0.58789,1.23242 1.07031,3.30469 a 1.4702376,1.4702376 0 0 0 0.008,0.0215 l 0.47266,1.38281 a 1.4702376,1.4702376 0 0 0 0,0.002 l 2.41016,7.03906 a 1.4702376,1.4702376 0 0 0 0.01,0.0274 l 1.27344,3.48633 0.50195,2.34961 a 1.4702376,1.4702376 0 0 0 0.0606,0.20703 l 1.59375,4.28125 0.0117,-0.0703 a 1.4702376,1.4702376 0 0 0 0.125,0.88086 l 0.35937,0.74219 -0.004,0.0117 a 1.4702376,1.4702376 0 0 0 0.0508,0.7832 l 2.80078,8.08789 0.3457,1.60938 a 1.4702376,1.4702376 0 0 0 0.60547,0.90234 l -0.15625,-0.10937 0.26953,1.75976 a 1.4702376,1.4702376 0 0 0 0.2793,0.66407 l 0.1543,0.20312 0.0332,-0.23437 a 1.4702376,1.4702376 0 0 0 0.0488,0.64257 l 0.57617,1.88477 a 1.4702376,1.4702376 0 0 0 1.22461,1.0293 l 4.03711,0.5039 a 1.4702376,1.4702376 0 0 0 1.40625,-0.64648 l -0.24805,0.39844 0.71875,0.20312 a 1.4702376,1.4702376 0 0 0 1.44922,-0.38672 1.4702376,1.4702376 0 0 0 0.99024,-1.81055 l -0.58594,-2.05078 -0.041,-0.5957 -0.31445,-5.08203 a 1.4702376,1.4702376 0 0 0 -0.0488,-0.29102 1.4702376,1.4702376 0 0 0 0,-0.002 1.4702376,1.4702376 0 0 0 -0.0293,-0.10156 l 0.0352,0.0937 a 1.4702376,1.4702376 0 0 0 0.20313,-0.74414 v -1.74805 l 0.125,-0.26953 a 1.4702376,1.4702376 0 0 0 0.13476,-0.56055 l 0.13086,-3.32617 0.96484,2.64453 v 0.3711 a 1.4702376,1.4702376 0 0 0 0.57618,1.16601 L 144,188.64844 a 1.4702376,1.4702376 0 0 0 1.97656,-0.17188 l 0.57617,-0.62695 a 1.4702376,1.4702376 0 0 0 0.32813,-1.41211 l -3.79688,-12.79883 0.22852,-2.36328 -0.17578,0.13867 a 1.4702376,1.4702376 0 0 0 0.52734,-0.86523 l 0.7793,-3.92774 0.25,-1.01367 1.4082,-5.07226 a 1.4702376,1.4702376 0 0 0 0.0508,-0.50196 l -0.0723,0.0977 a 1.4702376,1.4702376 0 0 0 0.0723,-0.10547 1.4702376,1.4702376 0 0 0 -0.11132,-0.45117 l 0.15625,0.36914 a 1.4702376,1.4702376 0 0 0 0.11914,-0.30469 l 2.61718,-9.92773 0.47071,-1.75 1.13672,-4.08789 1.70898,-4.72461 a 1.4702376,1.4702376 0 0 0 0.0879,-0.5 v -0.38672 l 0.17773,-0.73242 0.65626,-1.29492 a 1.4702376,1.4702376 0 0 0 0.0723,-0.16602 l 1.31055,-3.64648 a 1.4702376,1.4702376 0 0 0 0.0879,-0.49805 v 0.17383 l 0.17578,-0.23438 a 1.4702376,1.4702376 0 0 0 0.23828,-0.48633 l 0.66602,-2.38867 0.20507,-0.54687 2.13086,-4.03711 0.041,-0.0254 a 1.4702376,1.4702376 0 0 0 0.043,0.0937 l 0.63086,1.25781 a 1.4702376,1.4702376 0 0 0 0.59179,0.62305 l 0.78321,0.4414 a 1.4702376,1.4702376 0 0 0 1.18359,0.11524 l 2.0957,-0.69336 a 1.4702376,1.4702376 0 0 0 0.71094,-0.50782 l 1.04688,-1.38086 a 1.4702376,1.4702376 0 0 0 0.21093,-0.38867 l 1.20508,-3.33007 a 1.4702376,1.4702376 0 0 0 -0.0703,-1.16211 l -1.04687,-2.07618 a 1.4702376,1.4702376 0 0 0 -0.22071,-0.32226 l -1.36328,-1.50977 a 1.4702376,1.4702376 0 0 0 -0.87109,-0.46875 l -1.25196,-0.18945 a 1.4702376,1.4702376 0 0 0 -0.20312,-0.0176 z m -43.27539,8.08594 0.74023,1.41406 6.67578,17.26953 a 1.4702376,1.4702376 0 0 0 0.002,0.004 l 2.19336,5.63867 2.19531,6.08008 2.35547,6.5957 a 1.4702376,1.4702376 0 0 0 0.0137,0.0371 l 3.38672,8.75195 0.5,1.62305 0.83789,3.06836 -0.17188,0.69922 a 1.4702376,1.4702376 0 0 0 -0.0195,0.0957 l -0.41797,2.38867 a 1.4702376,1.4702376 0 0 0 -0.006,0.0293 l -0.48046,3.09766 -0.34766,-1.66797 a 1.4702376,1.4702376 0 0 0 -0.0606,-0.21094 l -0.61523,-1.6582 -1.14063,-3.66992 a 1.4702376,1.4702376 0 0 0 -0.57226,-0.77735 l 0.12695,0.0879 -0.51172,-2.61718 a 1.4702376,1.4702376 0 0 0 -0.11328,-0.3418 l -0.44726,-0.95508 -1.24024,-3.21875 a 1.4702376,1.4702376 0 0 0 -0.16016,-0.30469 l -0.73437,-1.07226 v -1.99414 a 1.4702376,1.4702376 0 0 0 -0.0762,-0.46485 l -0.94336,-2.82617 a 1.4702376,1.4702376 0 0 0 -0.0469,-0.12305 l -0.99804,-2.28711 0.0645,-0.62109 a 1.4702376,1.4702376 0 0 0 -0.0977,-0.69531 l -1.15234,-2.88477 -0.33984,-1.80664 a 1.4702376,1.4702376 0 0 0 -0.38868,-0.75 l -0.43554,-0.45117 -0.38282,-1.8418 a 1.4702376,1.4702376 0 0 0 -0.041,-0.15429 l -1.73047,-5.34375 a 1.4702376,1.4702376 0 0 0 -0.0625,-0.16211 l -1.26758,-2.75 -0.0742,-0.5918 a 1.4702376,1.4702376 0 0 0 -0.11914,-0.41992 l -3.09179,-6.84961 a 1.4702376,1.4702376 0 0 0 -0.35157,-0.48438 l -0.008,-0.006 -1.39648,-2.77343 a 1.4702376,1.4702376 0 0 0 -0.51563,-0.57422 l -0.67383,-0.43359 -1.07422,-0.7129 L 115,125.0625 a 1.4702376,1.4702376 0 0 0 0.40234,-0.1582 l 2.30469,-1.32032 a 1.4702376,1.4702376 0 0 0 0.5918,-0.63476 z m 39.69531,0.71094 a 1.4702376,1.4702376 0 0 0 -0.006,0.15234 l -0.008,-0.01 z m -66.085937,78.39062 a 1.4702376,1.4702376 0 0 0 0.511719,0.10547 l -0.07031,0.0723 z"
       transform="translate(-0.26586284,1.9631813)" />
    <path
       id="path837"
       style="font-style:normal;font-variant:normal;font-weight:normal;font-stretch:normal;font-size:20.6215px;line-height:1.25;font-family:'Party LET';-inkscape-font-specification:'Party LET, Normal';font-variant-ligatures:normal;font-variant-caps:normal;font-variant-numeric:normal;font-variant-east-asian:normal;fill:#a06a55;fill-opacity:1;stroke-width:0.512903;stroke-miterlimit:4;stroke-dasharray:none"
       d="m 142.21305,110.80771 -2.19641,0.51023 -2.30709,2.13728 -1.78125,2.38552 -0.78499,1.69957 -1.25792,2.2614 -2.98639,6.66369 -1.25544,3.89544 -1.3108,4.08504 -0.99628,3.08192 -0.2087,0.25157 -0.4703,2.32349 -0.99624,4.27467 -1.67564,4.96412 0.10294,0.63098 -0.5233,1.88569 -0.36744,1.56851 -1.36113,4.4642 -0.42006,2.51314 -0.89062,2.89231 -0.78502,-0.87914 -0.36701,-1.44785 -2.25172,-5.46746 -1.41393,-4.46081 -0.78752,-1.82354 -1.15227,-2.95435 -0.36744,-0.87904 -3.29839,-8.92511 -1.15478,-3.64731 -0.83786,-1.5064 -4.13862,-11.18992 -2.04294,-5.15375 -0.99624,-0.44159 -2.042969,0.56562 0.9963,0.94454 1.152299,2.19941 6.70491,17.34685 2.20137,5.65703 2.20143,6.0982 2.35743,6.59816 3.404,8.80098 0.52333,1.69613 0.94348,3.45757 -0.26176,1.06876 -0.41783,2.38891 -0.68177,4.39876 0.15562,0.68943 -0.52334,0.81701 -0.20867,1.19625 -1.04914,-0.25156 -0.7321,-2.38899 -0.26131,-0.94117 -0.42006,-2.01326 -0.62899,-1.69606 -1.15231,-3.7093 -0.367,-0.25158 -0.62897,-3.20598 -0.47031,-1.00318 -1.25796,-3.26813 -0.99377,-1.44781 v -2.45103 l -0.94344,-2.82679 -1.15227,-2.64061 0.10339,-1.00663 -1.2051,-3.01638 -0.36701,-1.94775 -0.73216,-0.75498 -0.47029,-2.2614 -1.73092,-5.34332 -1.36112,-2.95434 -0.10305,-0.81706 -3.092039,-6.84975 -0.2087,-0.18958 -1.51962,-3.01643 -0.68177,-0.44069 -1.51959,-1.00657 -0.52333,-1.69612 v -0.44114 l 0.8378,-0.56495 0.52334,0.0602 2.30452,-1.32033 h -3.29838 l -0.52581,0.62762 -0.94092,-0.31357 -2.20145,0.87909 -3.61534,0.50359 -1.04662,0.75498 -3.09204,0.5029 -1.93721,0.37556 -1.257961,0.56562 -4.138698,1.25829 -1.625271,0.62761 -2.251778,0.56562 -2.304527,0.75497 -0.890648,0.81709 -0.734621,1.25816 3.615326,4.33674 1.257965,1.50643 2.042905,1.00664 0.314373,-0.37556 -1.572464,-2.07524 0.05268,-1.44445 0.420067,-0.25157 0.576177,-1.57197 2.88065,-2.0753 0.470316,0.18957 0.420068,-0.31356 2.619081,-1.44786 1.3636,-0.50295 1.09947,-0.56557 2.41022,-1.1308 0.41782,-0.37555 1.62531,0.25156 1.30824,2.3235 0.23117,-0.16532 3.4594,8.8388 h 0.34227 l 1.36364,2.70269 v 0.56562 l 0.78496,1.44444 0.10306,0.88252 0.73467,1.44439 0.94348,3.51973 0.367,0.0602 0.62651,2.51657 0.57614,0.56562 0.52579,1.32033 1.308289,4.46073 0.62897,1.32041 1.09946,3.39557 0.47274,1.38235 2.41027,7.03943 1.30827,3.58169 0.52325,2.45102 1.73101,4.6504 -0.0531,0.3176 0.57612,1.19271 -0.10562,0.5029 2.83041,8.17018 0.36476,1.69601 0.36745,0.25158 0.36699,2.38889 0.52334,0.69288 -0.0531,0.37555 0.57618,1.88568 4.03549,0.50295 0.31438,-0.50295 1.78124,0.50295 -0.42008,-0.63098 1.04663,0.25157 -0.62893,-2.19942 -0.0509,-0.75497 -0.31438,-5.08821 -0.21139,-0.56495 0.36701,-0.56893 v -2.0718 l 0.26132,-0.56558 0.15874,-4.02309 0.57614,-2.51656 0.52329,-1.94772 2.77758,7.60486 v 0.63099 l 1.30828,1.00317 0.57614,-0.62699 -3.87704,-13.07218 0.31436,-3.26803 0.31437,-0.25158 0.78496,-3.96087 0.26446,-1.06875 1.41394,-5.09167 -0.15877,-0.37557 0.36745,-0.5029 2.61904,-9.93163 0.47277,-1.75815 1.15227,-4.14712 1.72844,-4.77798 v -0.56495 l 0.26129,-1.06867 0.73217,-1.44439 1.31076,-3.64728 v -0.31355 l 0.47031,-0.62766 0.68182,-2.45104 0.2613,-0.69292 2.35738,-4.46425 1.6781,-1.0652 0.89065,1.00318 -0.0527,0.50295 0.62899,1.25819 0.78496,0.44114 2.09579,-0.69288 1.04661,-1.38237 1.20512,-3.33008 -1.04661,-2.07528 -1.36365,-1.50989 z m -53.088219,13.45142 0.0728,1.82364 -0.42006,10.55907 -1.30828,11.62774 v 0.817 l -0.52333,3.33002 -0.21139,1.2583 -0.4703,2.51314 -0.83776,3.70932 -0.42007,2.57861 -0.73215,2.51306 -0.47273,2.8268 -1.93727,5.47079 -0.68177,2.19944 -0.732151,1.94768 -1.257952,3.26813 -1.258007,2.95434 -2.410222,3.7093 -1.257951,2.00979 -1.099466,0.87892 -0.208679,0.69294 -2.357375,2.5786 -1.519631,1.06866 -1.572464,1.19279 -1.519574,0.81701 -1.569907,0.31356 -2.095793,-0.62767 -0.943453,-1.00671 -0.261304,-1.32024 0.314374,-3.9575 0.523245,-0.69289 1.675643,-3.89542 0.890593,-0.25157 0.629024,-0.25157 0.576094,2.82677 0.996328,0.62697 1.834087,-0.49957 0.314388,-0.50292 2.095709,-2.64064 -0.472734,-1.06867 v -0.69297 l -1.099424,-1.56853 -2.251778,-1.63747 -0.420067,0.56895 h -0.420069 l -1.466769,0.817 -1.099465,1.19285 -1.25791,0.94449 -0.8378,1.69615 -0.523372,0.37554 -1.310757,2.45103 -0.208693,1.44786 -0.314373,0.25156 -0.367443,3.26799 0.314373,0.56557 v 1.63411 l 1.46677,2.7027 2.042918,1.57197 0.943482,-0.0602 1.886934,0.44069 2.148599,-0.87903 0.364747,0.0602 1.678116,-1.38232 0.943454,0.0602 0.52333,-0.94112 1.046617,-1.19621 0.366999,-0.37556 0.470301,0.18957 2.042905,-2.45101 0.525846,-1.44787 0.470316,-0.12393 0.784994,-0.75496 0.628969,-1.44436 0.366999,-0.18957 0.890647,-1.75814 0.784995,-0.81697 1.730927,-4.21266 0.78495,-1.44449 -0.15877,-0.5029 0.8906,-2.01322 h 0.36745 l 1.09941,-3.07845 -0.0503,-0.56495 0.88813,-1.38241 0.15877,-1.44796 0.31437,-0.37555 0.8378,-3.14391 0.41782,-0.62695 -0.0503,-0.75492 0.99377,-3.58177 0.21139,-1.06876 0.83778,-3.39214 0.31439,-1.06859 0.52323,-2.32695 0.2613,-2.82685 0.57618,-1.19616 -0.36745,-0.68947 0.36745,-0.25157 0.15563,-1.95126 0.57612,-3.39206 0.36701,-4.33674 0.26174,-1.82368 0.26131,-0.5036 0.21139,-4.5883 0.12051,-0.69986 z" />
    <ellipse
       style="fill:none;fill-opacity:1;stroke:url(#linearGradient862);stroke-width:2.54504;stroke-miterlimit:4;stroke-dasharray:7.63514, 7.63514;stroke-dashoffset:0"
       id="path856"
       cx="104.9207"
       cy="154.31902"
       rx="81.736275"
       ry="79.30825" />
    <ellipse
       style="fill:none;fill-opacity:1;stroke:url(#linearGradient923);stroke-width:2.90948;stroke-miterlimit:4;stroke-dasharray:none"
       id="path856-4"
       cx="104.6209"
       cy="154.5237"
       rx="94.016434"
       ry="90.109604" />
  </g>
</svg>
